<?xml version="1.0" encoding="UTF-8" standalone="no"?>
<svg xmlns:xlink="http://www.w3.org/1999/xlink" height="33.0px" width="57.6px" xmlns="http://www.w3.org/2000/svg">
  <g transform="matrix(1.0, 0.0, 0.0, 1.0, 28.8, 16.5)">
    <path d="M-14.35 0.05 Q-14.35 3.5 -10.15 5.9 -6.0 8.2 0.0 8.2 5.9 8.2 10.15 5.9 14.35 3.5 14.35 0.05 14.35 -3.3 10.15 -5.75 5.9 -8.2 0.0 -8.2 -6.0 -8.2 -10.15 -5.75 -14.35 -3.3 -14.35 0.05 M-11.95 0.1 Q-11.95 2.95 -8.45 4.95 -5.0 6.9 0.0 6.9 4.9 6.9 8.45 4.95 11.95 2.95 11.95 0.1 11.95 -2.7 8.45 -4.75 4.9 -6.8 0.0 -6.8 -5.0 -6.8 -8.45 -4.75 -11.95 -2.7 -11.95 0.1" fill="#66ccff" fill-rule="evenodd" stroke="none">
      <animate attributeName="fill" dur="2s" repeatCount="indefinite" values="#66ccff;#57b0df"/>
      <animate attributeName="fill-opacity" dur="2s" repeatCount="indefinite" values="1.0;0.0"/>
      <animate attributeName="d" dur="2s" repeatCount="indefinite" values="M-14.35 0.05 Q-14.35 3.5 -10.15 5.9 -6.0 8.2 0.0 8.2 5.9 8.2 10.15 5.9 14.35 3.5 14.35 0.05 14.35 -3.3 10.15 -5.75 5.9 -8.2 0.0 -8.2 -6.0 -8.2 -10.15 -5.75 -14.35 -3.3 -14.35 0.05 M-11.95 0.1 Q-11.95 2.95 -8.45 4.95 -5.0 6.9 0.0 6.9 4.9 6.9 8.45 4.95 11.95 2.95 11.95 0.1 11.95 -2.7 8.45 -4.75 4.9 -6.8 0.0 -6.8 -5.0 -6.8 -8.45 -4.75 -11.95 -2.7 -11.95 0.1;M-28.8 0.1 Q-28.8 7.0 -20.35 11.85 -12.05 16.5 0.0 16.5 11.85 16.5 20.35 11.85 28.8 7.0 28.8 0.1 28.8 -6.6 20.35 -11.5 11.85 -16.5 0.0 -16.5 -12.05 -16.5 -20.35 -11.5 -28.8 -6.6 -28.8 0.1 M-24.0 0.15 Q-24.0 5.95 -17.0 9.9 -10.05 13.85 0.0 13.85 9.8 13.85 17.0 9.9 24.0 5.95 24.0 0.15 24.0 -5.4 17.0 -9.6 9.8 -13.7 0.0 -13.7 -10.05 -13.7 -17.0 -9.6 -24.0 -5.4 -24.0 0.15"/>
    </path>
    <path d="M-14.35 0.05 Q-14.35 -3.3 -10.15 -5.75 -6.0 -8.2 0.0 -8.2 5.9 -8.2 10.15 -5.75 14.35 -3.3 14.35 0.05 14.35 3.5 10.15 5.9 5.9 8.2 0.0 8.2 -6.0 8.2 -10.15 5.9 -14.35 3.5 -14.35 0.05" fill="none" stroke="#000000" stroke-linecap="round" stroke-linejoin="round" stroke-opacity="0.0" stroke-width="1.0">
      <animate attributeName="stroke" dur="2s" repeatCount="indefinite" values="#000000;#000001"/>
      <animate attributeName="stroke-width" dur="2s" repeatCount="indefinite" values="0.0;0.0"/>
      <animate attributeName="fill-opacity" dur="2s" repeatCount="indefinite" values="0.0;0.0"/>
      <animate attributeName="d" dur="2s" repeatCount="indefinite" values="M-14.35 0.05 Q-14.35 -3.3 -10.15 -5.75 -6.0 -8.2 0.0 -8.2 5.9 -8.2 10.15 -5.75 14.35 -3.3 14.35 0.05 14.35 3.5 10.15 5.9 5.9 8.2 0.0 8.2 -6.0 8.2 -10.15 5.9 -14.35 3.5 -14.35 0.05;M-28.8 0.1 Q-28.8 -6.6 -20.35 -11.5 -12.05 -16.5 0.0 -16.5 11.85 -16.5 20.35 -11.5 28.8 -6.6 28.8 0.1 28.8 7.0 20.35 11.85 11.85 16.5 0.0 16.5 -12.05 16.5 -20.35 11.85 -28.8 7.0 -28.8 0.1"/>
    </path>
    <path d="M-11.95 0.1 Q-11.95 -2.7 -8.45 -4.75 -5.0 -6.8 0.0 -6.8 4.9 -6.8 8.45 -4.75 11.95 -2.7 11.95 0.1 11.95 2.95 8.45 4.95 4.9 6.9 0.0 6.9 -5.0 6.9 -8.45 4.95 -11.95 2.95 -11.95 0.1" fill="none" stroke="#000000" stroke-linecap="round" stroke-linejoin="round" stroke-opacity="0.0" stroke-width="1.0">
      <animate attributeName="stroke" dur="2s" repeatCount="indefinite" values="#000000;#000001"/>
      <animate attributeName="stroke-width" dur="2s" repeatCount="indefinite" values="0.0;0.0"/>
      <animate attributeName="fill-opacity" dur="2s" repeatCount="indefinite" values="0.0;0.0"/>
      <animate attributeName="d" dur="2s" repeatCount="indefinite" values="M-11.95 0.1 Q-11.95 -2.7 -8.45 -4.75 -5.0 -6.8 0.0 -6.8 4.9 -6.8 8.45 -4.75 11.95 -2.7 11.95 0.1 11.95 2.95 8.45 4.95 4.9 6.9 0.0 6.9 -5.0 6.9 -8.45 4.95 -11.95 2.95 -11.95 0.1;M-24.0 0.15 Q-24.0 -5.4 -17.0 -9.6 -10.05 -13.7 0.0 -13.7 9.8 -13.7 17.0 -9.6 24.0 -5.4 24.0 0.15 24.0 5.95 17.0 9.9 9.8 13.85 0.0 13.85 -10.05 13.85 -17.0 9.9 -24.0 5.95 -24.0 0.15"/>
    </path>
  </g>
</svg>
