<?xml version="1.0" encoding="UTF-8" standalone="no"?>
<svg xmlns:xlink="http://www.w3.org/1999/xlink" height="33.0px" width="57.6px" xmlns="http://www.w3.org/2000/svg">
  <g transform="matrix(1.0, 0.0, 0.0, 1.0, 28.8, 16.5)">
    <path d="M-24.35 0.1 Q-24.35 5.95 -17.2 10.0 -10.2 13.95 0.0 13.95 10.0 13.95 17.2 10.0 24.35 5.95 24.35 0.1 24.35 -5.6 17.2 -9.75 10.0 -13.95 0.0 -13.95 -10.2 -13.95 -17.2 -9.75 -24.35 -5.6 -24.35 0.1 M-20.3 0.15 Q-20.3 5.05 -14.35 8.4 -8.5 11.75 0.0 11.75 8.3 11.75 14.35 8.4 20.3 5.05 20.3 0.15 20.3 -4.55 14.35 -8.1 8.3 -11.6 0.0 -11.6 -8.5 -11.6 -14.35 -8.1 -20.3 -4.55 -20.3 0.15" fill="#5cb8e8" fill-opacity="0.30588236" fill-rule="evenodd" stroke="none">
      <animate attributeName="fill" dur="2s" repeatCount="indefinite" values="#5cb8e8;#57b0df"/>
      <animate attributeName="fill-opacity" dur="2s" repeatCount="indefinite" values="0.30588236;0.0"/>
      <animate attributeName="d" dur="2s" repeatCount="indefinite" values="M-24.35 0.1 Q-24.35 5.95 -17.2 10.0 -10.2 13.95 0.0 13.95 10.0 13.95 17.2 10.0 24.35 5.95 24.35 0.1 24.35 -5.6 17.2 -9.75 10.0 -13.95 0.0 -13.95 -10.2 -13.95 -17.2 -9.75 -24.35 -5.6 -24.35 0.1 M-20.3 0.15 Q-20.3 5.05 -14.35 8.4 -8.5 11.75 0.0 11.75 8.3 11.75 14.35 8.4 20.3 5.05 20.3 0.15 20.3 -4.55 14.35 -8.1 8.3 -11.6 0.0 -11.6 -8.5 -11.6 -14.35 -8.1 -20.3 -4.55 -20.3 0.15;M-28.8 0.1 Q-28.8 7.0 -20.35 11.85 -12.05 16.5 0.0 16.5 11.85 16.5 20.35 11.85 28.8 7.0 28.8 0.1 28.8 -6.6 20.35 -11.5 11.85 -16.5 0.0 -16.5 -12.05 -16.5 -20.35 -11.5 -28.8 -6.6 -28.8 0.1 M-24.0 0.15 Q-24.0 5.95 -17.0 9.9 -10.05 13.85 0.0 13.85 9.8 13.85 17.0 9.9 24.0 5.95 24.0 0.15 24.0 -5.4 17.0 -9.6 9.8 -13.7 0.0 -13.7 -10.05 -13.7 -17.0 -9.6 -24.0 -5.4 -24.0 0.15"/>
    </path>
    <path d="M-24.35 0.1 Q-24.35 -5.6 -17.2 -9.75 -10.2 -13.95 0.0 -13.95 10.0 -13.95 17.2 -9.75 24.35 -5.6 24.35 0.1 24.35 5.95 17.2 10.0 10.0 13.95 0.0 13.95 -10.2 13.95 -17.2 10.0 -24.35 5.95 -24.35 0.1" fill="none" stroke="#000000" stroke-linecap="round" stroke-linejoin="round" stroke-opacity="0.0" stroke-width="1.0">
      <animate attributeName="stroke" dur="2s" repeatCount="indefinite" values="#000000;#000001"/>
      <animate attributeName="stroke-width" dur="2s" repeatCount="indefinite" values="0.0;0.0"/>
      <animate attributeName="fill-opacity" dur="2s" repeatCount="indefinite" values="0.0;0.0"/>
      <animate attributeName="d" dur="2s" repeatCount="indefinite" values="M-24.35 0.1 Q-24.35 -5.6 -17.2 -9.75 -10.2 -13.95 0.0 -13.95 10.0 -13.95 17.2 -9.75 24.35 -5.6 24.35 0.1 24.35 5.95 17.2 10.0 10.0 13.95 0.0 13.95 -10.2 13.95 -17.2 10.0 -24.35 5.95 -24.35 0.1;M-28.8 0.1 Q-28.8 -6.6 -20.35 -11.5 -12.05 -16.5 0.0 -16.5 11.85 -16.5 20.35 -11.5 28.8 -6.6 28.8 0.1 28.8 7.0 20.35 11.85 11.85 16.5 0.0 16.5 -12.05 16.5 -20.35 11.85 -28.8 7.0 -28.8 0.1"/>
    </path>
    <path d="M-20.3 0.15 Q-20.3 -4.55 -14.35 -8.1 -8.5 -11.6 0.0 -11.6 8.3 -11.6 14.35 -8.1 20.3 -4.55 20.3 0.15 20.3 5.05 14.35 8.4 8.3 11.75 0.0 11.75 -8.5 11.75 -14.35 8.4 -20.3 5.05 -20.3 0.15" fill="none" stroke="#000000" stroke-linecap="round" stroke-linejoin="round" stroke-opacity="0.0" stroke-width="1.0">
      <animate attributeName="stroke" dur="2s" repeatCount="indefinite" values="#000000;#000001"/>
      <animate attributeName="stroke-width" dur="2s" repeatCount="indefinite" values="0.0;0.0"/>
      <animate attributeName="fill-opacity" dur="2s" repeatCount="indefinite" values="0.0;0.0"/>
      <animate attributeName="d" dur="2s" repeatCount="indefinite" values="M-20.3 0.15 Q-20.3 -4.55 -14.35 -8.1 -8.5 -11.6 0.0 -11.6 8.3 -11.6 14.35 -8.1 20.3 -4.55 20.3 0.15 20.3 5.05 14.35 8.4 8.3 11.75 0.0 11.75 -8.5 11.75 -14.35 8.4 -20.3 5.05 -20.3 0.15;M-24.0 0.15 Q-24.0 -5.4 -17.0 -9.6 -10.05 -13.7 0.0 -13.7 9.8 -13.7 17.0 -9.6 24.0 -5.4 24.0 0.15 24.0 5.95 17.0 9.9 9.8 13.85 0.0 13.85 -10.05 13.85 -17.0 9.9 -24.0 5.95 -24.0 0.15"/>
    </path>
  </g>
</svg>
