<?xml version="1.0" encoding="UTF-8" standalone="no"?>
<svg xmlns:xlink="http://www.w3.org/1999/xlink" height="33.0px" width="57.6px" xmlns="http://www.w3.org/2000/svg">
  <g transform="matrix(1.0, 0.0, 0.0, 1.0, 28.8, 16.5)">
    <path d="M-19.15 0.05 Q-19.15 4.7 -13.55 7.9 -8.0 10.95 0.0 10.95 7.9 10.95 13.55 7.9 19.15 4.7 19.15 0.05 19.15 -4.4 13.55 -7.65 7.9 -10.95 0.0 -10.95 -8.0 -10.95 -13.55 -7.65 -19.15 -4.4 -19.15 0.05 M-15.95 0.1 Q-15.95 3.95 -11.3 6.6 -6.7 9.25 0.0 9.25 6.55 9.25 11.3 6.6 15.95 3.95 15.95 0.1 15.95 -3.6 11.3 -6.35 6.55 -9.1 0.0 -9.1 -6.7 -9.1 -11.3 -6.35 -15.95 -3.6 -15.95 0.1" fill="#61c2f4" fill-opacity="0.6666667" fill-rule="evenodd" stroke="none">
      <animate attributeName="fill" dur="2s" repeatCount="indefinite" values="#61c2f4;#57b0df"/>
      <animate attributeName="fill-opacity" dur="2s" repeatCount="indefinite" values="0.6666667;0.0"/>
      <animate attributeName="d" dur="2s" repeatCount="indefinite" values="M-19.15 0.05 Q-19.15 4.7 -13.55 7.9 -8.0 10.95 0.0 10.95 7.9 10.95 13.55 7.9 19.15 4.7 19.15 0.05 19.15 -4.4 13.55 -7.65 7.9 -10.95 0.0 -10.95 -8.0 -10.95 -13.55 -7.65 -19.15 -4.4 -19.15 0.05 M-15.95 0.1 Q-15.95 3.95 -11.3 6.6 -6.7 9.25 0.0 9.25 6.55 9.25 11.3 6.6 15.95 3.95 15.95 0.1 15.95 -3.6 11.3 -6.35 6.55 -9.1 0.0 -9.1 -6.7 -9.1 -11.3 -6.35 -15.95 -3.6 -15.95 0.1;M-28.8 0.1 Q-28.8 7.0 -20.35 11.85 -12.05 16.5 0.0 16.5 11.85 16.5 20.35 11.85 28.8 7.0 28.8 0.1 28.8 -6.6 20.35 -11.5 11.85 -16.5 0.0 -16.5 -12.05 -16.5 -20.35 -11.5 -28.8 -6.6 -28.8 0.1 M-24.0 0.15 Q-24.0 5.95 -17.0 9.9 -10.05 13.85 0.0 13.85 9.8 13.85 17.0 9.9 24.0 5.95 24.0 0.15 24.0 -5.4 17.0 -9.6 9.8 -13.7 0.0 -13.7 -10.05 -13.7 -17.0 -9.6 -24.0 -5.4 -24.0 0.15"/>
    </path>
    <path d="M-19.15 0.05 Q-19.15 -4.4 -13.55 -7.65 -8.0 -10.95 0.0 -10.95 7.9 -10.95 13.55 -7.65 19.15 -4.4 19.15 0.05 19.15 4.7 13.55 7.9 7.9 10.95 0.0 10.95 -8.0 10.95 -13.55 7.9 -19.15 4.7 -19.15 0.05" fill="none" stroke="#000000" stroke-linecap="round" stroke-linejoin="round" stroke-opacity="0.0" stroke-width="1.0">
      <animate attributeName="stroke" dur="2s" repeatCount="indefinite" values="#000000;#000001"/>
      <animate attributeName="stroke-width" dur="2s" repeatCount="indefinite" values="0.0;0.0"/>
      <animate attributeName="fill-opacity" dur="2s" repeatCount="indefinite" values="0.0;0.0"/>
      <animate attributeName="d" dur="2s" repeatCount="indefinite" values="M-19.15 0.05 Q-19.15 -4.4 -13.55 -7.65 -8.0 -10.95 0.0 -10.95 7.9 -10.95 13.55 -7.65 19.15 -4.4 19.15 0.05 19.15 4.7 13.55 7.9 7.9 10.95 0.0 10.95 -8.0 10.95 -13.55 7.9 -19.15 4.7 -19.15 0.05;M-28.8 0.1 Q-28.8 -6.6 -20.35 -11.5 -12.05 -16.5 0.0 -16.5 11.85 -16.5 20.35 -11.5 28.8 -6.6 28.8 0.1 28.8 7.0 20.35 11.85 11.85 16.5 0.0 16.5 -12.05 16.5 -20.35 11.85 -28.8 7.0 -28.8 0.1"/>
    </path>
    <path d="M-15.95 0.1 Q-15.95 -3.6 -11.3 -6.35 -6.7 -9.1 0.0 -9.1 6.55 -9.1 11.3 -6.35 15.95 -3.6 15.95 0.1 15.95 3.95 11.3 6.6 6.55 9.25 0.0 9.25 -6.7 9.25 -11.3 6.6 -15.95 3.95 -15.95 0.1" fill="none" stroke="#000000" stroke-linecap="round" stroke-linejoin="round" stroke-opacity="0.0" stroke-width="1.0">
      <animate attributeName="stroke" dur="2s" repeatCount="indefinite" values="#000000;#000001"/>
      <animate attributeName="stroke-width" dur="2s" repeatCount="indefinite" values="0.0;0.0"/>
      <animate attributeName="fill-opacity" dur="2s" repeatCount="indefinite" values="0.0;0.0"/>
      <animate attributeName="d" dur="2s" repeatCount="indefinite" values="M-15.95 0.1 Q-15.95 -3.6 -11.3 -6.35 -6.7 -9.1 0.0 -9.1 6.55 -9.1 11.3 -6.35 15.95 -3.6 15.95 0.1 15.95 3.95 11.3 6.6 6.55 9.25 0.0 9.25 -6.7 9.25 -11.3 6.6 -15.95 3.95 -15.95 0.1;M-24.0 0.15 Q-24.0 -5.4 -17.0 -9.6 -10.05 -13.7 0.0 -13.7 9.8 -13.7 17.0 -9.6 24.0 -5.4 24.0 0.15 24.0 5.95 17.0 9.9 9.8 13.85 0.0 13.85 -10.05 13.85 -17.0 9.9 -24.0 5.95 -24.0 0.15"/>
    </path>
  </g>
</svg>
