<?xml version="1.0" encoding="UTF-8" standalone="no"?>
<svg xmlns:xlink="http://www.w3.org/1999/xlink" height="21.5px" width="37.6px" xmlns="http://www.w3.org/2000/svg">
  <g transform="matrix(1.0, 0.0, 0.0, 1.0, 18.8, 10.75)">
    <path d="M-14.35 0.05 Q-14.35 3.5 -10.15 5.9 -6.0 8.2 0.0 8.2 5.9 8.2 10.15 5.9 14.35 3.5 14.35 0.05 14.35 -3.3 10.15 -5.75 5.9 -8.2 0.0 -8.2 -6.0 -8.2 -10.15 -5.75 -14.35 -3.3 -14.35 0.05 M-11.95 0.1 Q-11.95 2.95 -8.45 4.95 -5.0 6.9 0.0 6.9 4.9 6.9 8.45 4.95 11.95 2.95 11.95 0.1 11.95 -2.7 8.45 -4.75 4.9 -6.8 0.0 -6.8 -5.0 -6.8 -8.45 -4.75 -11.95 -2.7 -11.95 0.1" fill="#66ccff" fill-rule="evenodd" stroke="none">
      <animate attributeName="fill" dur="2s" repeatCount="indefinite" values="#66ccff;#61c3f6"/>
      <animate attributeName="fill-opacity" dur="2s" repeatCount="indefinite" values="1.0;0.69411767"/>
      <animate attributeName="d" dur="2s" repeatCount="indefinite" values="M-14.35 0.05 Q-14.35 3.5 -10.15 5.9 -6.0 8.2 0.0 8.2 5.9 8.2 10.15 5.9 14.35 3.5 14.35 0.05 14.35 -3.3 10.15 -5.75 5.9 -8.2 0.0 -8.2 -6.0 -8.2 -10.15 -5.75 -14.35 -3.3 -14.35 0.05 M-11.95 0.1 Q-11.95 2.95 -8.45 4.95 -5.0 6.9 0.0 6.9 4.9 6.9 8.45 4.95 11.95 2.95 11.95 0.1 11.95 -2.7 8.45 -4.75 4.9 -6.8 0.0 -6.8 -5.0 -6.8 -8.45 -4.75 -11.95 -2.7 -11.95 0.1;M-18.8 0.05 Q-18.8 4.6 -13.3 7.75 -7.85 10.75 0.0 10.75 7.75 10.75 13.3 7.75 18.8 4.6 18.8 0.05 18.8 -4.3 13.3 -7.5 7.75 -10.75 0.0 -10.75 -7.85 -10.75 -13.3 -7.5 -18.8 -4.3 -18.8 0.05 M-15.65 0.1 Q-15.65 3.85 -11.1 6.45 -6.55 9.05 0.0 9.05 6.4 9.05 11.1 6.45 15.65 3.85 15.65 0.1 15.65 -3.55 11.1 -6.25 6.4 -8.9 0.0 -8.9 -6.55 -8.9 -11.1 -6.25 -15.65 -3.55 -15.65 0.1"/>
    </path>
    <path d="M-14.35 0.05 Q-14.35 -3.3 -10.15 -5.75 -6.0 -8.2 0.0 -8.2 5.9 -8.2 10.15 -5.75 14.35 -3.3 14.35 0.05 14.35 3.5 10.15 5.9 5.9 8.2 0.0 8.2 -6.0 8.2 -10.15 5.9 -14.35 3.5 -14.35 0.05" fill="none" stroke="#000000" stroke-linecap="round" stroke-linejoin="round" stroke-opacity="0.0" stroke-width="1.0">
      <animate attributeName="stroke" dur="2s" repeatCount="indefinite" values="#000000;#000001"/>
      <animate attributeName="stroke-width" dur="2s" repeatCount="indefinite" values="0.0;0.0"/>
      <animate attributeName="fill-opacity" dur="2s" repeatCount="indefinite" values="0.0;0.0"/>
      <animate attributeName="d" dur="2s" repeatCount="indefinite" values="M-14.35 0.05 Q-14.35 -3.3 -10.15 -5.75 -6.0 -8.2 0.0 -8.2 5.9 -8.2 10.15 -5.75 14.35 -3.3 14.35 0.05 14.35 3.5 10.15 5.9 5.9 8.2 0.0 8.2 -6.0 8.2 -10.15 5.9 -14.35 3.5 -14.35 0.05;M-18.8 0.05 Q-18.8 -4.3 -13.3 -7.5 -7.85 -10.75 0.0 -10.75 7.75 -10.75 13.3 -7.5 18.8 -4.3 18.8 0.05 18.8 4.6 13.3 7.75 7.75 10.75 0.0 10.75 -7.85 10.75 -13.3 7.75 -18.8 4.6 -18.8 0.05"/>
    </path>
    <path d="M-11.95 0.1 Q-11.95 -2.7 -8.45 -4.75 -5.0 -6.8 0.0 -6.8 4.9 -6.8 8.45 -4.75 11.95 -2.7 11.95 0.1 11.95 2.95 8.45 4.95 4.9 6.9 0.0 6.9 -5.0 6.9 -8.45 4.95 -11.95 2.95 -11.95 0.1" fill="none" stroke="#000000" stroke-linecap="round" stroke-linejoin="round" stroke-opacity="0.0" stroke-width="1.0">
      <animate attributeName="stroke" dur="2s" repeatCount="indefinite" values="#000000;#000001"/>
      <animate attributeName="stroke-width" dur="2s" repeatCount="indefinite" values="0.0;0.0"/>
      <animate attributeName="fill-opacity" dur="2s" repeatCount="indefinite" values="0.0;0.0"/>
      <animate attributeName="d" dur="2s" repeatCount="indefinite" values="M-11.95 0.1 Q-11.95 -2.7 -8.45 -4.75 -5.0 -6.8 0.0 -6.8 4.9 -6.8 8.45 -4.75 11.95 -2.7 11.95 0.1 11.95 2.95 8.45 4.95 4.9 6.9 0.0 6.9 -5.0 6.9 -8.45 4.95 -11.95 2.95 -11.95 0.1;M-15.65 0.1 Q-15.65 -3.55 -11.1 -6.25 -6.55 -8.9 0.0 -8.9 6.4 -8.9 11.1 -6.25 15.65 -3.55 15.65 0.1 15.65 3.85 11.1 6.45 6.4 9.05 0.0 9.05 -6.55 9.05 -11.1 6.45 -15.65 3.85 -15.65 0.1"/>
    </path>
  </g>
</svg>
