<?xml version="1.0" encoding="UTF-8" standalone="no"?>
<svg xmlns:xlink="http://www.w3.org/1999/xlink" height="20.4px" width="159.3px" xmlns="http://www.w3.org/2000/svg">
  <g transform="matrix(1.0, 0.0, 0.0, 1.0, -146.0, -168.0)">
    <path d="M146.0 168.3 L146.0 182.6 148.45 182.6 148.45 174.75 Q148.4 172.05 149.55 171.05 150.65 170.05 152.2 170.05 153.2 170.05 153.9 170.5 154.6 170.95 154.9 171.7 L155.2 173.9 155.2 182.6 157.6 182.6 157.6 173.8 157.45 171.45 Q157.25 170.4 156.7 169.65 156.2 168.9 155.1 168.45 154.0 168.0 152.75 168.0 149.7 168.0 148.2 170.3 L148.2 168.3 146.0 168.3 M160.45 175.55 Q160.4 179.0 162.3 181.0 164.05 182.9 167.25 182.9 169.75 182.9 171.35 181.7 172.95 180.5 173.55 178.3 L171.05 178.0 Q170.5 179.55 167.25 180.95 165.45 180.95 164.3 179.7 163.05 178.45 162.95 176.1 L173.6 175.4 Q173.6 171.85 171.8 169.9 170.0 168.0 167.1 168.0 164.1 168.0 162.3 169.95 160.4 171.95 160.45 175.55 M163.1 174.05 L171.05 174.05 Q170.9 172.25 170.15 171.35 169.0 169.95 164.35 171.1 163.15 172.2 163.1 174.05 M174.85 168.3 L179.2 182.6 181.7 182.6 184.6 171.6 187.45 182.6 189.95 182.6 194.4 168.3 192.05 168.3 188.8 179.35 185.95 168.3 183.45 168.3 180.45 179.65 177.35 168.3 174.85 168.3 M203.15 175.35 Q203.15 178.3 204.75 180.5 206.35 182.6 209.3 182.6 211.65 182.6 213.25 180.75 L213.1 183.85 Q212.75 185.05 211.85 185.7 210.95 186.4 209.25 186.4 207.7 186.4 206.8 185.7 206.1 185.2 205.95 184.15 L203.6 183.8 Q203.55 186.1 205.15 187.25 206.7 188.4 209.25 188.4 211.4 188.4 212.9 187.6 214.35 186.75 215.05 185.4 215.7 184.0 215.7 180.65 L215.7 168.3 Q214.6 168.3 213.5 170.0 211.85 168.0 209.3 168.0 207.4 168.0 206.0 168.9 204.6 169.85 203.9 171.6 203.15 173.3 203.15 175.35 M205.6 175.15 Q205.6 177.95 206.75 179.3 207.85 180.6 209.55 180.6 211.2 180.6 212.3 179.35 213.45 178.0 213.45 175.25 213.45 172.65 212.3 171.3 211.15 170.0 206.75 171.3 205.6 172.6 205.6 175.15 M218.5 178.85 Q218.5 180.65 219.75 181.8 221.0 182.9 223.35 182.9 L226.05 182.45 228.6 180.85 229.1 182.6 231.65 182.6 Q231.15 181.8 231.05 180.9 230.85 180.0 230.85 176.65 L230.85 173.35 230.75 171.15 Q230.55 170.15 230.0 169.5 229.45 168.85 228.3 168.4 L225.35 168.0 222.1 168.5 Q220.7 169.0 219.95 169.9 219.25 170.85 218.9 172.35 L221.25 172.7 Q221.65 171.15 222.5 170.6 223.3 170.0 225.0 170.0 226.8 170.0 227.75 170.8 228.45 171.4 228.4 173.5 L224.1 174.35 221.95 174.7 Q221.0 174.95 219.0 176.95 218.5 177.75 218.5 178.85 M221.05 178.8 Q221.05 179.75 221.8 180.4 222.55 181.05 223.95 181.05 225.35 181.05 226.45 180.45 227.5 179.8 228.05 178.75 228.4 177.95 228.4 175.4 L224.45 176.35 Q223.0 176.5 221.4 177.65 221.05 178.1 221.05 178.8 M234.6 168.3 L234.6 182.6 237.05 182.6 237.05 175.15 Q237.05 173.2 237.4 172.2 237.8 171.15 238.7 170.6 239.55 170.05 240.55 170.05 241.9 170.05 242.5 170.85 243.1 171.7 243.1 173.3 L243.1 182.6 245.5 182.6 245.5 174.25 Q245.5 172.05 246.5 171.1 247.5 170.05 249.0 170.05 L250.45 170.45 251.3 171.5 251.55 173.55 251.55 182.6 254.0 182.6 254.0 172.75 Q254.0 170.3 252.85 169.15 251.65 168.0 249.55 168.0 246.8 168.0 245.15 170.45 244.7 169.3 243.7 168.65 242.7 168.0 241.1 168.0 239.7 168.0 238.55 168.6 237.45 169.25 236.8 168.3 L234.6 168.3 M256.75 175.55 Q256.7 179.0 258.6 181.0 260.35 182.9 263.55 182.9 266.05 182.9 267.65 181.7 269.25 180.5 269.85 178.3 L267.35 178.0 Q266.8 179.55 263.55 180.95 261.75 180.95 260.6 179.7 259.35 178.45 259.25 176.1 L269.9 175.4 Q269.9 171.85 268.1 169.9 266.3 168.0 263.4 168.0 260.4 168.0 258.6 169.95 256.7 171.95 256.75 175.55 M259.4 174.05 L267.35 174.05 Q267.2 172.25 266.45 171.35 265.3 169.95 260.65 171.1 259.45 172.2 259.4 174.05 M271.85 178.35 Q272.2 180.6 273.7 181.75 275.1 182.9 277.95 182.9 L280.95 182.35 283.0 180.7 Q283.7 179.6 283.7 178.4 283.7 177.15 283.1 176.35 282.55 175.45 281.55 175.05 L277.95 173.9 275.8 173.3 Q275.15 173.05 274.9 172.65 274.55 172.25 274.6 171.8 274.55 171.05 275.3 170.5 275.95 169.95 277.7 169.95 279.1 169.95 279.85 170.6 280.65 171.2 280.8 172.3 L283.15 171.95 Q282.95 170.6 282.3 169.75 281.7 168.95 280.45 168.45 L277.5 168.0 275.4 168.25 273.85 168.95 Q273.1 169.5 272.7 170.3 272.2 171.15 272.25 172.1 272.2 173.15 272.8 174.0 273.25 174.85 274.35 175.35 275.3 175.85 278.05 176.55 280.0 177.05 280.5 177.4 281.2 177.8 281.2 178.65 281.2 179.6 280.4 180.25 279.6 180.95 277.95 180.95 276.25 180.95 274.25 177.95 L271.85 178.35 M287.25 179.85 L287.25 182.6 Q288.65 182.6 290.0 179.85 L287.25 179.85 M294.9 179.85 L294.9 182.6 Q296.3 182.6 297.65 179.85 L294.9 179.85 M302.55 179.85 L302.55 182.6 Q303.95 182.6 305.3 179.85 L302.55 179.85" fill="#ffffff" fill-opacity="0.0" fill-rule="evenodd" stroke="none">
      <animate attributeName="fill" dur="2s" repeatCount="indefinite" values="#ffffff;#001145"/>
      <animate attributeName="fill-opacity" dur="2s" repeatCount="indefinite" values="0.0;1.0"/>
      <animate attributeName="d" dur="2s" repeatCount="indefinite" values="M146.0 168.3 L146.0 182.6 148.45 182.6 148.45 174.75 Q148.4 172.05 149.55 171.05 150.65 170.05 152.2 170.05 153.2 170.05 153.9 170.5 154.6 170.95 154.9 171.7 L155.2 173.9 155.2 182.6 157.6 182.6 157.6 173.8 157.45 171.45 Q157.25 170.4 156.7 169.65 156.2 168.9 155.1 168.45 154.0 168.0 152.75 168.0 149.7 168.0 148.2 170.3 L148.2 168.3 146.0 168.3 M160.45 175.55 Q160.4 179.0 162.3 181.0 164.05 182.9 167.25 182.9 169.75 182.9 171.35 181.7 172.95 180.5 173.55 178.3 L171.05 178.0 Q170.5 179.55 167.25 180.95 165.45 180.95 164.3 179.7 163.05 178.45 162.95 176.1 L173.6 175.4 Q173.6 171.85 171.8 169.9 170.0 168.0 167.1 168.0 164.1 168.0 162.3 169.95 160.4 171.95 160.45 175.55 M163.1 174.05 L171.05 174.05 Q170.9 172.25 170.15 171.35 169.0 169.95 164.35 171.1 163.15 172.2 163.1 174.05 M174.85 168.3 L179.2 182.6 181.7 182.6 184.6 171.6 187.45 182.6 189.95 182.6 194.4 168.3 192.05 168.3 188.8 179.35 185.95 168.3 183.45 168.3 180.45 179.65 177.35 168.3 174.85 168.3 M203.15 175.35 Q203.15 178.3 204.75 180.5 206.35 182.6 209.3 182.6 211.65 182.6 213.25 180.75 L213.1 183.85 Q212.75 185.05 211.85 185.7 210.95 186.4 209.25 186.4 207.7 186.4 206.8 185.7 206.1 185.2 205.95 184.15 L203.6 183.8 Q203.55 186.1 205.15 187.25 206.7 188.4 209.25 188.4 211.4 188.4 212.9 187.6 214.35 186.75 215.05 185.4 215.7 184.0 215.7 180.65 L215.7 168.3 Q214.6 168.3 213.5 170.0 211.85 168.0 209.3 168.0 207.4 168.0 206.0 168.9 204.6 169.85 203.9 171.6 203.15 173.3 203.15 175.35 M205.6 175.15 Q205.6 177.95 206.75 179.3 207.85 180.6 209.55 180.6 211.2 180.6 212.3 179.35 213.45 178.0 213.45 175.25 213.45 172.65 212.3 171.3 211.15 170.0 206.75 171.3 205.6 172.6 205.6 175.15 M218.5 178.85 Q218.5 180.65 219.75 181.8 221.0 182.9 223.35 182.9 L226.05 182.45 228.6 180.85 229.1 182.6 231.65 182.6 Q231.15 181.8 231.05 180.9 230.85 180.0 230.85 176.65 L230.85 173.35 230.75 171.15 Q230.55 170.15 230.0 169.5 229.45 168.85 228.3 168.4 L225.35 168.0 222.1 168.5 Q220.7 169.0 219.95 169.9 219.25 170.85 218.9 172.35 L221.25 172.7 Q221.65 171.15 222.5 170.6 223.3 170.0 225.0 170.0 226.8 170.0 227.75 170.8 228.45 171.4 228.4 173.5 L224.1 174.35 221.95 174.7 Q221.0 174.95 219.0 176.95 218.5 177.75 218.5 178.85 M221.05 178.8 Q221.05 179.75 221.8 180.4 222.55 181.05 223.95 181.05 225.35 181.05 226.45 180.45 227.5 179.8 228.05 178.75 228.4 177.95 228.4 175.4 L224.45 176.35 Q223.0 176.5 221.4 177.65 221.05 178.1 221.05 178.8 M234.6 168.3 L234.6 182.6 237.05 182.6 237.05 175.15 Q237.05 173.2 237.4 172.2 237.8 171.15 238.7 170.6 239.55 170.05 240.55 170.05 241.9 170.05 242.5 170.85 243.1 171.7 243.1 173.3 L243.1 182.6 245.5 182.6 245.5 174.25 Q245.5 172.05 246.5 171.1 247.5 170.05 249.0 170.05 L250.45 170.45 251.3 171.5 251.55 173.55 251.55 182.6 254.0 182.6 254.0 172.75 Q254.0 170.3 252.85 169.15 251.65 168.0 249.55 168.0 246.8 168.0 245.15 170.45 244.7 169.3 243.7 168.65 242.7 168.0 241.1 168.0 239.7 168.0 238.55 168.6 237.45 169.25 236.8 168.3 L234.6 168.3 M256.75 175.55 Q256.7 179.0 258.6 181.0 260.35 182.9 263.55 182.9 266.05 182.9 267.65 181.7 269.25 180.5 269.85 178.3 L267.35 178.0 Q266.8 179.55 263.55 180.95 261.75 180.95 260.6 179.7 259.35 178.45 259.25 176.1 L269.9 175.4 Q269.9 171.85 268.1 169.9 266.3 168.0 263.4 168.0 260.4 168.0 258.6 169.95 256.7 171.95 256.75 175.55 M259.4 174.05 L267.35 174.05 Q267.2 172.25 266.45 171.35 265.3 169.95 260.65 171.1 259.45 172.2 259.4 174.05 M271.85 178.35 Q272.2 180.6 273.7 181.75 275.1 182.9 277.95 182.9 L280.95 182.35 283.0 180.7 Q283.7 179.6 283.7 178.4 283.7 177.15 283.1 176.35 282.55 175.45 281.55 175.05 L277.95 173.9 275.8 173.3 Q275.15 173.05 274.9 172.65 274.55 172.25 274.6 171.8 274.55 171.05 275.3 170.5 275.95 169.95 277.7 169.95 279.1 169.95 279.85 170.6 280.65 171.2 280.8 172.3 L283.15 171.95 Q282.95 170.6 282.3 169.75 281.7 168.95 280.45 168.45 L277.5 168.0 275.4 168.25 273.85 168.95 Q273.1 169.5 272.7 170.3 272.2 171.15 272.25 172.1 272.2 173.15 272.8 174.0 273.25 174.85 274.35 175.35 275.3 175.85 278.05 176.55 280.0 177.05 280.5 177.4 281.2 177.8 281.2 178.65 281.2 179.6 280.4 180.25 279.6 180.95 277.95 180.95 276.25 180.95 274.25 177.95 L271.85 178.35 M287.25 179.85 L287.25 182.6 Q288.65 182.6 290.0 179.85 L287.25 179.85 M294.9 179.85 L294.9 182.6 Q296.3 182.6 297.65 179.85 L294.9 179.85 M302.55 179.85 L302.55 182.6 Q303.95 182.6 305.3 179.85 L302.55 179.85;M146.0 168.3 L146.0 182.6 148.45 182.6 148.45 174.75 Q148.4 172.05 149.55 171.05 150.65 170.05 152.2 170.05 153.2 170.05 153.9 170.5 154.6 170.95 154.9 171.7 L155.2 173.9 155.2 182.6 157.6 182.6 157.6 173.8 157.45 171.45 Q157.25 170.4 156.7 169.65 156.2 168.9 155.1 168.45 154.0 168.0 152.75 168.0 149.7 168.0 148.2 170.3 L148.2 168.3 146.0 168.3 M160.45 175.55 Q160.4 179.0 162.3 181.0 164.05 182.9 167.25 182.9 169.75 182.9 171.35 181.7 172.95 180.5 173.55 178.3 L171.05 178.0 Q170.5 179.55 167.25 180.95 165.45 180.95 164.3 179.7 163.05 178.45 162.95 176.1 L173.6 175.4 Q173.6 171.85 171.8 169.9 170.0 168.0 167.1 168.0 164.1 168.0 162.3 169.95 160.4 171.95 160.45 175.55 M163.1 174.05 L171.05 174.05 Q170.9 172.25 170.15 171.35 169.0 169.95 164.35 171.1 163.15 172.2 163.1 174.05 M174.85 168.3 L179.2 182.6 181.7 182.6 184.6 171.6 187.45 182.6 189.95 182.6 194.4 168.3 192.05 168.3 188.8 179.35 185.95 168.3 183.45 168.3 180.45 179.65 177.35 168.3 174.85 168.3 M203.15 175.35 Q203.15 178.3 204.75 180.5 206.35 182.6 209.3 182.6 211.65 182.6 213.25 180.75 L213.1 183.85 Q212.75 185.05 211.85 185.7 210.95 186.4 209.25 186.4 207.7 186.4 206.8 185.7 206.1 185.2 205.95 184.15 L203.6 183.8 Q203.55 186.1 205.15 187.25 206.7 188.4 209.25 188.4 211.4 188.4 212.9 187.6 214.35 186.75 215.05 185.4 215.7 184.0 215.7 180.65 L215.7 168.3 Q214.6 168.3 213.5 170.0 211.85 168.0 209.3 168.0 207.4 168.0 206.0 168.9 204.6 169.85 203.9 171.6 203.15 173.3 203.15 175.35 M205.6 175.15 Q205.6 177.95 206.75 179.3 207.85 180.6 209.55 180.6 211.2 180.6 212.3 179.35 213.45 178.0 213.45 175.25 213.45 172.65 212.3 171.3 211.15 170.0 206.75 171.3 205.6 172.6 205.6 175.15 M218.5 178.85 Q218.5 180.65 219.75 181.8 221.0 182.9 223.35 182.9 L226.05 182.45 228.6 180.85 229.1 182.6 231.65 182.6 Q231.15 181.8 231.05 180.9 230.85 180.0 230.85 176.65 L230.85 173.35 230.75 171.15 Q230.55 170.15 230.0 169.5 229.45 168.85 228.3 168.4 L225.35 168.0 222.1 168.5 Q220.7 169.0 219.95 169.9 219.25 170.85 218.9 172.35 L221.25 172.7 Q221.65 171.15 222.5 170.6 223.3 170.0 225.0 170.0 226.8 170.0 227.75 170.8 228.45 171.4 228.4 173.5 L224.1 174.35 221.95 174.7 Q221.0 174.95 219.0 176.95 218.5 177.75 218.5 178.85 M221.05 178.8 Q221.05 179.75 221.8 180.4 222.55 181.05 223.95 181.05 225.35 181.05 226.45 180.45 227.5 179.8 228.05 178.75 228.4 177.95 228.4 175.4 L224.45 176.35 Q223.0 176.5 221.4 177.65 221.05 178.1 221.05 178.8 M234.6 168.3 L234.6 182.6 237.05 182.6 237.05 175.15 Q237.05 173.2 237.4 172.2 237.8 171.15 238.7 170.6 239.55 170.05 240.55 170.05 241.9 170.05 242.5 170.85 243.1 171.7 243.1 173.3 L243.1 182.6 245.5 182.6 245.5 174.25 Q245.5 172.05 246.5 171.1 247.5 170.05 249.0 170.05 L250.45 170.45 251.3 171.5 251.55 173.55 251.55 182.6 254.0 182.6 254.0 172.75 Q254.0 170.3 252.85 169.15 251.65 168.0 249.55 168.0 246.8 168.0 245.15 170.45 244.7 169.3 243.7 168.65 242.7 168.0 241.1 168.0 239.7 168.0 238.55 168.6 237.45 169.25 236.8 168.3 L234.6 168.3 M256.75 175.55 Q256.7 179.0 258.6 181.0 260.35 182.9 263.55 182.9 266.05 182.9 267.65 181.7 269.25 180.5 269.85 178.3 L267.35 178.0 Q266.8 179.55 263.55 180.95 261.75 180.95 260.6 179.7 259.35 178.45 259.25 176.1 L269.9 175.4 Q269.9 171.85 268.1 169.9 266.3 168.0 263.4 168.0 260.4 168.0 258.6 169.95 256.7 171.95 256.75 175.55 M259.4 174.05 L267.35 174.05 Q267.2 172.25 266.45 171.35 265.3 169.95 260.65 171.1 259.45 172.2 259.4 174.05 M271.85 178.35 Q272.2 180.6 273.7 181.75 275.1 182.9 277.95 182.9 L280.95 182.35 283.0 180.7 Q283.7 179.6 283.7 178.4 283.7 177.15 283.1 176.35 282.55 175.45 281.55 175.05 L277.95 173.9 275.8 173.3 Q275.15 173.05 274.9 172.65 274.55 172.25 274.6 171.8 274.55 171.05 275.3 170.5 275.95 169.95 277.7 169.95 279.1 169.95 279.85 170.6 280.65 171.2 280.8 172.3 L283.15 171.95 Q282.95 170.6 282.3 169.75 281.7 168.95 280.45 168.45 L277.5 168.0 275.4 168.25 273.85 168.95 Q273.1 169.5 272.7 170.3 272.2 171.15 272.25 172.1 272.2 173.15 272.8 174.0 273.25 174.85 274.35 175.35 275.3 175.85 278.05 176.55 280.0 177.05 280.5 177.4 281.2 177.8 281.2 178.65 281.2 179.6 280.4 180.25 279.6 180.95 277.95 180.95 276.25 180.95 274.25 177.95 L271.85 178.35 M287.25 179.85 L287.25 182.6 Q288.65 182.6 290.0 179.85 L287.25 179.85 M294.9 179.85 L294.9 182.6 Q296.3 182.6 297.65 179.85 L294.9 179.85 M302.55 179.85 L302.55 182.6 Q303.95 182.6 305.3 179.85 L302.55 179.85"/>
    </path>
    <path d="M146.0 168.3 L148.2 168.3 148.2 170.3 Q149.7 168.0 152.75 168.0 154.0 168.0 155.1 168.45 156.2 168.9 156.7 169.65 157.25 170.4 157.45 171.45 L157.6 173.8 157.6 182.6 155.2 182.6 155.2 173.9 154.9 171.7 Q154.6 170.95 153.9 170.5 153.2 170.05 152.2 170.05 150.65 170.05 149.55 171.05 148.4 172.05 148.45 174.75 L148.45 182.6 146.0 182.6 146.0 168.3" fill="none" stroke="#000000" stroke-linecap="round" stroke-linejoin="round" stroke-opacity="0.0" stroke-width="1.0">
      <animate attributeName="stroke" dur="2s" repeatCount="indefinite" values="#000000;#000001"/>
      <animate attributeName="stroke-width" dur="2s" repeatCount="indefinite" values="0.0;0.0"/>
      <animate attributeName="fill-opacity" dur="2s" repeatCount="indefinite" values="0.0;0.0"/>
      <animate attributeName="d" dur="2s" repeatCount="indefinite" values="M146.0 168.3 L148.2 168.3 148.2 170.3 Q149.7 168.0 152.75 168.0 154.0 168.0 155.1 168.45 156.2 168.9 156.7 169.65 157.25 170.4 157.45 171.45 L157.6 173.8 157.6 182.6 155.2 182.6 155.2 173.9 154.9 171.7 Q154.6 170.95 153.9 170.5 153.2 170.05 152.2 170.05 150.65 170.05 149.55 171.05 148.4 172.05 148.45 174.75 L148.45 182.6 146.0 182.6 146.0 168.3;M146.0 168.3 L148.2 168.3 148.2 170.3 Q149.7 168.0 152.75 168.0 154.0 168.0 155.1 168.45 156.2 168.9 156.7 169.65 157.25 170.4 157.45 171.45 L157.6 173.8 157.6 182.6 155.2 182.6 155.2 173.9 154.9 171.7 Q154.6 170.95 153.9 170.5 153.2 170.05 152.2 170.05 150.65 170.05 149.55 171.05 148.4 172.05 148.45 174.75 L148.45 182.6 146.0 182.6 146.0 168.3"/>
    </path>
    <path d="M160.45 175.55 Q160.4 171.95 162.3 169.95 164.1 168.0 167.1 168.0 170.0 168.0 171.8 169.9 173.6 171.85 173.6 175.4 L162.95 176.1 Q163.05 178.45 164.3 179.7 165.45 180.95 167.25 180.95 170.5 179.55 171.05 178.0 L173.55 178.3 Q172.95 180.5 171.35 181.7 169.75 182.9 167.25 182.9 164.05 182.9 162.3 181.0 160.4 179.0 160.45 175.55" fill="none" stroke="#000000" stroke-linecap="round" stroke-linejoin="round" stroke-opacity="0.0" stroke-width="1.0">
      <animate attributeName="stroke" dur="2s" repeatCount="indefinite" values="#000000;#000001"/>
      <animate attributeName="stroke-width" dur="2s" repeatCount="indefinite" values="0.0;0.0"/>
      <animate attributeName="fill-opacity" dur="2s" repeatCount="indefinite" values="0.0;0.0"/>
      <animate attributeName="d" dur="2s" repeatCount="indefinite" values="M160.45 175.55 Q160.4 171.95 162.3 169.95 164.1 168.0 167.1 168.0 170.0 168.0 171.8 169.9 173.6 171.85 173.6 175.4 L162.95 176.1 Q163.05 178.45 164.3 179.7 165.45 180.95 167.25 180.95 170.5 179.55 171.05 178.0 L173.55 178.3 Q172.95 180.5 171.35 181.7 169.75 182.9 167.25 182.9 164.05 182.9 162.3 181.0 160.4 179.0 160.45 175.55;M160.45 175.55 Q160.4 171.95 162.3 169.95 164.1 168.0 167.1 168.0 170.0 168.0 171.8 169.9 173.6 171.85 173.6 175.4 L162.95 176.1 Q163.05 178.45 164.3 179.7 165.45 180.95 167.25 180.95 170.5 179.55 171.05 178.0 L173.55 178.3 Q172.95 180.5 171.35 181.7 169.75 182.9 167.25 182.9 164.05 182.9 162.3 181.0 160.4 179.0 160.45 175.55"/>
    </path>
    <path d="M163.1 174.05 Q163.15 172.2 164.35 171.1 169.0 169.95 170.15 171.35 170.9 172.25 171.05 174.05 L163.1 174.05" fill="none" stroke="#000000" stroke-linecap="round" stroke-linejoin="round" stroke-opacity="0.0" stroke-width="1.0">
      <animate attributeName="stroke" dur="2s" repeatCount="indefinite" values="#000000;#000001"/>
      <animate attributeName="stroke-width" dur="2s" repeatCount="indefinite" values="0.0;0.0"/>
      <animate attributeName="fill-opacity" dur="2s" repeatCount="indefinite" values="0.0;0.0"/>
      <animate attributeName="d" dur="2s" repeatCount="indefinite" values="M163.1 174.05 Q163.15 172.2 164.35 171.1 169.0 169.95 170.15 171.35 170.9 172.25 171.05 174.05 L163.1 174.05;M163.1 174.05 Q163.15 172.2 164.35 171.1 169.0 169.95 170.15 171.35 170.9 172.25 171.05 174.05 L163.1 174.05"/>
    </path>
    <path d="M174.85 168.3 L177.35 168.3 180.45 179.65 183.45 168.3 185.95 168.3 188.8 179.35 192.05 168.3 194.4 168.3 189.95 182.6 187.45 182.6 184.6 171.6 181.7 182.6 179.2 182.6 174.85 168.3" fill="none" stroke="#000000" stroke-linecap="round" stroke-linejoin="round" stroke-opacity="0.0" stroke-width="1.0">
      <animate attributeName="stroke" dur="2s" repeatCount="indefinite" values="#000000;#000001"/>
      <animate attributeName="stroke-width" dur="2s" repeatCount="indefinite" values="0.0;0.0"/>
      <animate attributeName="fill-opacity" dur="2s" repeatCount="indefinite" values="0.0;0.0"/>
      <animate attributeName="d" dur="2s" repeatCount="indefinite" values="M174.85 168.3 L177.35 168.3 180.45 179.65 183.45 168.3 185.95 168.3 188.8 179.35 192.05 168.3 194.4 168.3 189.95 182.6 187.45 182.6 184.6 171.6 181.7 182.6 179.2 182.6 174.85 168.3;M174.85 168.3 L177.35 168.3 180.45 179.65 183.45 168.3 185.95 168.3 188.8 179.35 192.05 168.3 194.4 168.3 189.95 182.6 187.45 182.6 184.6 171.6 181.7 182.6 179.2 182.6 174.85 168.3"/>
    </path>
    <path d="M203.15 175.35 Q203.15 173.3 203.9 171.6 204.6 169.85 206.0 168.9 207.4 168.0 209.3 168.0 211.85 168.0 213.5 170.0 214.6 168.3 215.7 168.3 L215.7 180.65 Q215.7 184.0 215.05 185.4 214.35 186.75 212.9 187.6 211.4 188.4 209.25 188.4 206.7 188.4 205.15 187.25 203.55 186.1 203.6 183.8 L205.95 184.15 Q206.1 185.2 206.8 185.7 207.7 186.4 209.25 186.4 210.95 186.4 211.85 185.7 212.75 185.05 213.1 183.85 L213.25 180.75 Q211.65 182.6 209.3 182.6 206.35 182.6 204.75 180.5 203.15 178.3 203.15 175.35" fill="none" stroke="#000000" stroke-linecap="round" stroke-linejoin="round" stroke-opacity="0.0" stroke-width="1.0">
      <animate attributeName="stroke" dur="2s" repeatCount="indefinite" values="#000000;#000001"/>
      <animate attributeName="stroke-width" dur="2s" repeatCount="indefinite" values="0.0;0.0"/>
      <animate attributeName="fill-opacity" dur="2s" repeatCount="indefinite" values="0.0;0.0"/>
      <animate attributeName="d" dur="2s" repeatCount="indefinite" values="M203.15 175.35 Q203.15 173.3 203.9 171.6 204.6 169.85 206.0 168.9 207.4 168.0 209.3 168.0 211.85 168.0 213.5 170.0 214.6 168.3 215.7 168.3 L215.7 180.65 Q215.7 184.0 215.05 185.4 214.35 186.75 212.9 187.6 211.4 188.4 209.25 188.4 206.7 188.4 205.15 187.25 203.55 186.1 203.6 183.8 L205.95 184.15 Q206.1 185.2 206.8 185.7 207.7 186.4 209.25 186.4 210.95 186.4 211.85 185.7 212.75 185.05 213.1 183.85 L213.25 180.75 Q211.65 182.6 209.3 182.6 206.35 182.6 204.75 180.5 203.15 178.3 203.15 175.35;M203.15 175.35 Q203.15 173.3 203.9 171.6 204.6 169.85 206.0 168.9 207.4 168.0 209.3 168.0 211.85 168.0 213.5 170.0 214.6 168.3 215.7 168.3 L215.7 180.65 Q215.7 184.0 215.05 185.4 214.35 186.75 212.9 187.6 211.4 188.4 209.25 188.4 206.7 188.4 205.15 187.25 203.55 186.1 203.6 183.8 L205.95 184.15 Q206.1 185.2 206.8 185.7 207.7 186.4 209.25 186.4 210.95 186.4 211.85 185.7 212.75 185.05 213.1 183.85 L213.25 180.75 Q211.65 182.6 209.3 182.6 206.35 182.6 204.75 180.5 203.15 178.3 203.15 175.35"/>
    </path>
    <path d="M205.6 175.15 Q205.6 172.6 206.75 171.3 211.15 170.0 212.3 171.3 213.45 172.65 213.45 175.25 213.45 178.0 212.3 179.35 211.2 180.6 209.55 180.6 207.85 180.6 206.75 179.3 205.6 177.95 205.6 175.15" fill="none" stroke="#000000" stroke-linecap="round" stroke-linejoin="round" stroke-opacity="0.0" stroke-width="1.0">
      <animate attributeName="stroke" dur="2s" repeatCount="indefinite" values="#000000;#000001"/>
      <animate attributeName="stroke-width" dur="2s" repeatCount="indefinite" values="0.0;0.0"/>
      <animate attributeName="fill-opacity" dur="2s" repeatCount="indefinite" values="0.0;0.0"/>
      <animate attributeName="d" dur="2s" repeatCount="indefinite" values="M205.6 175.15 Q205.6 172.6 206.75 171.3 211.15 170.0 212.3 171.3 213.45 172.65 213.45 175.25 213.45 178.0 212.3 179.35 211.2 180.6 209.55 180.6 207.85 180.6 206.75 179.3 205.6 177.95 205.6 175.15;M205.6 175.15 Q205.6 172.6 206.75 171.3 211.15 170.0 212.3 171.3 213.45 172.65 213.45 175.25 213.45 178.0 212.3 179.35 211.2 180.6 209.55 180.6 207.85 180.6 206.75 179.3 205.6 177.95 205.6 175.15"/>
    </path>
    <path d="M218.5 178.85 Q218.5 177.75 219.0 176.95 221.0 174.95 221.95 174.7 L224.1 174.35 228.4 173.5 Q228.45 171.4 227.75 170.8 226.8 170.0 225.0 170.0 223.3 170.0 222.5 170.6 221.65 171.15 221.25 172.7 L218.9 172.35 Q219.25 170.85 219.95 169.9 220.7 169.0 222.1 168.5 L225.35 168.0 228.3 168.4 Q229.45 168.85 230.0 169.5 230.55 170.15 230.75 171.15 L230.85 173.35 230.85 176.65 Q230.85 180.0 231.05 180.9 231.15 181.8 231.65 182.6 L229.1 182.6 228.6 180.85 226.05 182.45 223.35 182.9 Q221.0 182.9 219.75 181.8 218.5 180.65 218.5 178.85" fill="none" stroke="#000000" stroke-linecap="round" stroke-linejoin="round" stroke-opacity="0.0" stroke-width="1.0">
      <animate attributeName="stroke" dur="2s" repeatCount="indefinite" values="#000000;#000001"/>
      <animate attributeName="stroke-width" dur="2s" repeatCount="indefinite" values="0.0;0.0"/>
      <animate attributeName="fill-opacity" dur="2s" repeatCount="indefinite" values="0.0;0.0"/>
      <animate attributeName="d" dur="2s" repeatCount="indefinite" values="M218.5 178.85 Q218.5 177.75 219.0 176.95 221.0 174.95 221.95 174.7 L224.1 174.35 228.4 173.5 Q228.45 171.4 227.75 170.8 226.8 170.0 225.0 170.0 223.3 170.0 222.5 170.6 221.65 171.15 221.25 172.7 L218.9 172.35 Q219.25 170.85 219.95 169.9 220.7 169.0 222.1 168.5 L225.35 168.0 228.3 168.4 Q229.45 168.85 230.0 169.5 230.55 170.15 230.75 171.15 L230.85 173.35 230.85 176.65 Q230.85 180.0 231.05 180.9 231.15 181.8 231.65 182.6 L229.1 182.6 228.6 180.85 226.05 182.45 223.35 182.9 Q221.0 182.9 219.75 181.8 218.5 180.65 218.5 178.85;M218.5 178.85 Q218.5 177.75 219.0 176.95 221.0 174.95 221.95 174.7 L224.1 174.35 228.4 173.5 Q228.45 171.4 227.75 170.8 226.8 170.0 225.0 170.0 223.3 170.0 222.5 170.6 221.65 171.15 221.25 172.7 L218.9 172.35 Q219.25 170.85 219.95 169.9 220.7 169.0 222.1 168.5 L225.35 168.0 228.3 168.4 Q229.45 168.85 230.0 169.5 230.55 170.15 230.75 171.15 L230.85 173.35 230.85 176.65 Q230.85 180.0 231.05 180.9 231.15 181.8 231.65 182.6 L229.1 182.6 228.6 180.85 226.05 182.45 223.35 182.9 Q221.0 182.9 219.75 181.8 218.5 180.65 218.5 178.85"/>
    </path>
    <path d="M221.05 178.8 Q221.05 178.1 221.4 177.65 223.0 176.5 224.45 176.35 L228.4 175.4 Q228.4 177.95 228.05 178.75 227.5 179.8 226.45 180.45 225.35 181.05 223.95 181.05 222.55 181.05 221.8 180.4 221.05 179.75 221.05 178.8" fill="none" stroke="#000000" stroke-linecap="round" stroke-linejoin="round" stroke-opacity="0.0" stroke-width="1.0">
      <animate attributeName="stroke" dur="2s" repeatCount="indefinite" values="#000000;#000001"/>
      <animate attributeName="stroke-width" dur="2s" repeatCount="indefinite" values="0.0;0.0"/>
      <animate attributeName="fill-opacity" dur="2s" repeatCount="indefinite" values="0.0;0.0"/>
      <animate attributeName="d" dur="2s" repeatCount="indefinite" values="M221.05 178.8 Q221.05 178.1 221.4 177.65 223.0 176.5 224.45 176.35 L228.4 175.4 Q228.4 177.95 228.05 178.75 227.5 179.8 226.45 180.45 225.35 181.05 223.95 181.05 222.55 181.05 221.8 180.4 221.05 179.75 221.05 178.8;M221.05 178.8 Q221.05 178.1 221.4 177.65 223.0 176.5 224.45 176.35 L228.4 175.4 Q228.4 177.95 228.05 178.75 227.5 179.8 226.45 180.45 225.35 181.05 223.95 181.05 222.55 181.05 221.8 180.4 221.05 179.75 221.05 178.8"/>
    </path>
    <path d="M234.6 168.3 L236.8 168.3 Q237.45 169.25 238.55 168.6 239.7 168.0 241.1 168.0 242.7 168.0 243.7 168.65 244.7 169.3 245.15 170.45 246.8 168.0 249.55 168.0 251.65 168.0 252.85 169.15 254.0 170.3 254.0 172.75 L254.0 182.6 251.55 182.6 251.55 173.55 251.3 171.5 250.45 170.45 249.0 170.05 Q247.5 170.05 246.5 171.1 245.5 172.05 245.5 174.25 L245.5 182.6 243.1 182.6 243.1 173.3 Q243.1 171.7 242.5 170.85 241.9 170.05 240.55 170.05 239.55 170.05 238.7 170.6 237.8 171.15 237.4 172.2 237.05 173.2 237.05 175.15 L237.05 182.6 234.6 182.6 234.6 168.3" fill="none" stroke="#000000" stroke-linecap="round" stroke-linejoin="round" stroke-opacity="0.0" stroke-width="1.0">
      <animate attributeName="stroke" dur="2s" repeatCount="indefinite" values="#000000;#000001"/>
      <animate attributeName="stroke-width" dur="2s" repeatCount="indefinite" values="0.0;0.0"/>
      <animate attributeName="fill-opacity" dur="2s" repeatCount="indefinite" values="0.0;0.0"/>
      <animate attributeName="d" dur="2s" repeatCount="indefinite" values="M234.6 168.3 L236.8 168.3 Q237.45 169.25 238.55 168.6 239.7 168.0 241.1 168.0 242.7 168.0 243.7 168.65 244.7 169.3 245.15 170.45 246.8 168.0 249.55 168.0 251.65 168.0 252.85 169.15 254.0 170.3 254.0 172.75 L254.0 182.6 251.55 182.6 251.55 173.55 251.3 171.5 250.45 170.45 249.0 170.05 Q247.5 170.05 246.5 171.1 245.5 172.05 245.5 174.25 L245.5 182.6 243.1 182.6 243.1 173.3 Q243.1 171.7 242.5 170.85 241.9 170.05 240.55 170.05 239.55 170.05 238.7 170.6 237.8 171.15 237.4 172.2 237.05 173.2 237.05 175.15 L237.05 182.6 234.6 182.6 234.6 168.3;M234.6 168.3 L236.8 168.3 Q237.45 169.25 238.55 168.6 239.7 168.0 241.1 168.0 242.7 168.0 243.7 168.65 244.7 169.3 245.15 170.45 246.8 168.0 249.55 168.0 251.65 168.0 252.85 169.15 254.0 170.3 254.0 172.75 L254.0 182.6 251.55 182.6 251.55 173.55 251.3 171.5 250.45 170.45 249.0 170.05 Q247.5 170.05 246.5 171.1 245.5 172.05 245.5 174.25 L245.5 182.6 243.1 182.6 243.1 173.3 Q243.1 171.7 242.5 170.85 241.9 170.05 240.55 170.05 239.55 170.05 238.7 170.6 237.8 171.15 237.4 172.2 237.05 173.2 237.05 175.15 L237.05 182.6 234.6 182.6 234.6 168.3"/>
    </path>
    <path d="M256.75 175.55 Q256.7 171.95 258.6 169.95 260.4 168.0 263.4 168.0 266.3 168.0 268.1 169.9 269.9 171.85 269.9 175.4 L259.25 176.1 Q259.35 178.45 260.6 179.7 261.75 180.95 263.55 180.95 266.8 179.55 267.35 178.0 L269.85 178.3 Q269.25 180.5 267.65 181.7 266.05 182.9 263.55 182.9 260.35 182.9 258.6 181.0 256.7 179.0 256.75 175.55" fill="none" stroke="#000000" stroke-linecap="round" stroke-linejoin="round" stroke-opacity="0.0" stroke-width="1.0">
      <animate attributeName="stroke" dur="2s" repeatCount="indefinite" values="#000000;#000001"/>
      <animate attributeName="stroke-width" dur="2s" repeatCount="indefinite" values="0.0;0.0"/>
      <animate attributeName="fill-opacity" dur="2s" repeatCount="indefinite" values="0.0;0.0"/>
      <animate attributeName="d" dur="2s" repeatCount="indefinite" values="M256.75 175.55 Q256.7 171.95 258.6 169.95 260.4 168.0 263.4 168.0 266.3 168.0 268.1 169.9 269.9 171.85 269.9 175.4 L259.25 176.1 Q259.35 178.45 260.6 179.7 261.75 180.95 263.55 180.95 266.8 179.55 267.35 178.0 L269.85 178.3 Q269.25 180.5 267.65 181.7 266.05 182.9 263.55 182.9 260.35 182.9 258.6 181.0 256.7 179.0 256.75 175.55;M256.75 175.55 Q256.7 171.95 258.6 169.95 260.4 168.0 263.4 168.0 266.3 168.0 268.1 169.9 269.9 171.85 269.9 175.4 L259.25 176.1 Q259.35 178.45 260.6 179.7 261.75 180.95 263.55 180.95 266.8 179.55 267.35 178.0 L269.85 178.3 Q269.25 180.5 267.65 181.7 266.05 182.9 263.55 182.9 260.35 182.9 258.6 181.0 256.7 179.0 256.75 175.55"/>
    </path>
    <path d="M259.4 174.05 Q259.45 172.2 260.65 171.1 265.3 169.95 266.45 171.35 267.2 172.25 267.35 174.05 L259.4 174.05" fill="none" stroke="#000000" stroke-linecap="round" stroke-linejoin="round" stroke-opacity="0.0" stroke-width="1.0">
      <animate attributeName="stroke" dur="2s" repeatCount="indefinite" values="#000000;#000001"/>
      <animate attributeName="stroke-width" dur="2s" repeatCount="indefinite" values="0.0;0.0"/>
      <animate attributeName="fill-opacity" dur="2s" repeatCount="indefinite" values="0.0;0.0"/>
      <animate attributeName="d" dur="2s" repeatCount="indefinite" values="M259.4 174.05 Q259.45 172.2 260.65 171.1 265.3 169.95 266.45 171.35 267.2 172.25 267.35 174.05 L259.4 174.05;M259.4 174.05 Q259.45 172.2 260.65 171.1 265.3 169.95 266.45 171.35 267.2 172.25 267.35 174.05 L259.4 174.05"/>
    </path>
    <path d="M271.85 178.35 L274.25 177.95 Q276.25 180.95 277.95 180.95 279.6 180.95 280.4 180.25 281.2 179.6 281.2 178.65 281.2 177.8 280.5 177.4 280.0 177.05 278.05 176.55 275.3 175.85 274.35 175.35 273.25 174.85 272.8 174.0 272.2 173.15 272.25 172.1 272.2 171.15 272.7 170.3 273.1 169.5 273.85 168.95 L275.4 168.25 277.5 168.0 280.45 168.45 Q281.7 168.95 282.3 169.75 282.95 170.6 283.15 171.95 L280.8 172.3 Q280.65 171.2 279.85 170.6 279.1 169.95 277.7 169.95 275.95 169.95 275.3 170.5 274.55 171.05 274.6 171.8 274.55 172.25 274.9 172.65 275.15 173.05 275.8 173.3 L277.95 173.9 281.55 175.05 Q282.55 175.45 283.1 176.35 283.7 177.15 283.7 178.4 283.7 179.6 283.0 180.7 L280.95 182.35 277.95 182.9 Q275.1 182.9 273.7 181.75 272.2 180.6 271.85 178.35" fill="none" stroke="#000000" stroke-linecap="round" stroke-linejoin="round" stroke-opacity="0.0" stroke-width="1.0">
      <animate attributeName="stroke" dur="2s" repeatCount="indefinite" values="#000000;#000001"/>
      <animate attributeName="stroke-width" dur="2s" repeatCount="indefinite" values="0.0;0.0"/>
      <animate attributeName="fill-opacity" dur="2s" repeatCount="indefinite" values="0.0;0.0"/>
      <animate attributeName="d" dur="2s" repeatCount="indefinite" values="M271.85 178.35 L274.25 177.95 Q276.25 180.95 277.95 180.95 279.6 180.95 280.4 180.25 281.2 179.6 281.2 178.65 281.2 177.8 280.5 177.4 280.0 177.05 278.05 176.55 275.3 175.85 274.35 175.35 273.25 174.85 272.8 174.0 272.2 173.15 272.25 172.1 272.2 171.15 272.7 170.3 273.1 169.5 273.85 168.95 L275.4 168.25 277.5 168.0 280.45 168.45 Q281.7 168.95 282.3 169.75 282.95 170.6 283.15 171.95 L280.8 172.3 Q280.65 171.2 279.85 170.6 279.1 169.95 277.7 169.95 275.95 169.95 275.3 170.5 274.55 171.05 274.6 171.8 274.55 172.25 274.9 172.65 275.15 173.05 275.8 173.3 L277.95 173.9 281.55 175.05 Q282.55 175.45 283.1 176.35 283.7 177.15 283.7 178.4 283.7 179.6 283.0 180.7 L280.95 182.35 277.95 182.9 Q275.1 182.9 273.7 181.75 272.2 180.6 271.85 178.35;M271.85 178.35 L274.25 177.95 Q276.25 180.95 277.95 180.95 279.6 180.95 280.4 180.25 281.2 179.6 281.2 178.65 281.2 177.8 280.5 177.4 280.0 177.05 278.05 176.55 275.3 175.85 274.35 175.35 273.25 174.85 272.8 174.0 272.2 173.15 272.25 172.1 272.2 171.15 272.7 170.3 273.1 169.5 273.85 168.95 L275.4 168.25 277.5 168.0 280.45 168.45 Q281.7 168.95 282.3 169.75 282.95 170.6 283.15 171.95 L280.8 172.3 Q280.65 171.2 279.85 170.6 279.1 169.95 277.7 169.95 275.95 169.95 275.3 170.5 274.55 171.05 274.6 171.8 274.55 172.25 274.9 172.65 275.15 173.05 275.8 173.3 L277.95 173.9 281.55 175.05 Q282.55 175.45 283.1 176.35 283.7 177.15 283.7 178.4 283.7 179.6 283.0 180.7 L280.95 182.35 277.95 182.9 Q275.1 182.9 273.7 181.75 272.2 180.6 271.85 178.35"/>
    </path>
    <path d="M287.25 179.85 L290.0 179.85 Q288.65 182.6 287.25 182.6 L287.25 179.85" fill="none" stroke="#000000" stroke-linecap="round" stroke-linejoin="round" stroke-opacity="0.0" stroke-width="1.0">
      <animate attributeName="stroke" dur="2s" repeatCount="indefinite" values="#000000;#000001"/>
      <animate attributeName="stroke-width" dur="2s" repeatCount="indefinite" values="0.0;0.0"/>
      <animate attributeName="fill-opacity" dur="2s" repeatCount="indefinite" values="0.0;0.0"/>
      <animate attributeName="d" dur="2s" repeatCount="indefinite" values="M287.25 179.85 L290.0 179.85 Q288.65 182.6 287.25 182.6 L287.25 179.85;M287.25 179.85 L290.0 179.85 Q288.65 182.6 287.25 182.6 L287.25 179.85"/>
    </path>
    <path d="M294.9 179.85 L297.65 179.85 Q296.3 182.6 294.9 182.6 L294.9 179.85" fill="none" stroke="#000000" stroke-linecap="round" stroke-linejoin="round" stroke-opacity="0.0" stroke-width="1.0">
      <animate attributeName="stroke" dur="2s" repeatCount="indefinite" values="#000000;#000001"/>
      <animate attributeName="stroke-width" dur="2s" repeatCount="indefinite" values="0.0;0.0"/>
      <animate attributeName="fill-opacity" dur="2s" repeatCount="indefinite" values="0.0;0.0"/>
      <animate attributeName="d" dur="2s" repeatCount="indefinite" values="M294.9 179.85 L297.65 179.85 Q296.3 182.6 294.9 182.6 L294.9 179.85;M294.9 179.85 L297.65 179.85 Q296.3 182.6 294.9 182.6 L294.9 179.85"/>
    </path>
    <path d="M302.55 179.85 L305.3 179.85 Q303.95 182.6 302.55 182.6 L302.55 179.85" fill="none" stroke="#000000" stroke-linecap="round" stroke-linejoin="round" stroke-opacity="0.0" stroke-width="1.0">
      <animate attributeName="stroke" dur="2s" repeatCount="indefinite" values="#000000;#000001"/>
      <animate attributeName="stroke-width" dur="2s" repeatCount="indefinite" values="0.0;0.0"/>
      <animate attributeName="fill-opacity" dur="2s" repeatCount="indefinite" values="0.0;0.0"/>
      <animate attributeName="d" dur="2s" repeatCount="indefinite" values="M302.55 179.85 L305.3 179.85 Q303.95 182.6 302.55 182.6 L302.55 179.85;M302.55 179.85 L305.3 179.85 Q303.95 182.6 302.55 182.6 L302.55 179.85"/>
    </path>
  </g>
</svg>
