<?xml version="1.0" encoding="UTF-8" standalone="no"?>
<svg xmlns:xlink="http://www.w3.org/1999/xlink" height="14.3px" width="254.4px" xmlns="http://www.w3.org/2000/svg">
  <g transform="matrix(1.0, 0.0, 0.0, 1.0, -398.0, -418.0)">
    <path d="M398.0 430.05 L398.0 432.0 399.95 432.0 399.95 430.05 398.0 430.05 M407.5 430.05 L407.5 432.0 Q408.5 432.0 409.45 430.05 L407.5 430.05 M417.0 430.05 L417.0 432.0 Q418.0 432.0 418.95 430.05 L417.0 430.05 M426.25 418.25 L426.25 432.0 436.55 432.0 436.55 430.35 428.1 430.35 428.1 425.7 435.75 425.7 435.75 424.05 428.1 424.05 428.1 419.85 Q432.2 419.85 436.25 418.25 L426.25 418.25 M441.8 418.25 L447.15 432.0 449.0 432.0 454.4 418.25 452.55 418.25 448.8 428.25 Q448.4 429.35 447.35 428.25 L443.75 418.25 441.8 418.25 M460.2 418.25 L460.2 432.0 470.5 432.0 470.5 430.35 462.05 430.35 462.05 425.7 469.7 425.7 469.7 424.05 462.05 424.05 462.05 419.85 Q466.15 419.85 470.2 418.25 L460.2 418.25 M477.2 418.25 L477.2 432.0 479.05 432.0 479.05 425.9 481.15 425.9 482.15 425.95 483.0 426.3 483.95 427.25 485.25 429.15 487.05 432.0 489.35 432.0 486.95 428.25 Q486.25 427.15 485.45 426.4 L484.35 425.75 Q486.35 425.45 487.3 424.45 488.25 423.45 488.25 422.0 488.25 420.8 487.65 419.9 487.1 418.9 483.35 418.25 L477.2 418.25 M479.05 419.75 L479.05 424.3 482.95 424.3 484.9 424.05 486.0 423.25 486.35 422.0 Q486.35 420.95 483.4 419.75 L479.05 419.75 M493.45 418.25 L498.75 426.15 498.75 432.0 500.6 432.0 500.6 426.15 506.1 418.25 503.95 418.25 501.3 422.3 498.4 422.4 495.7 418.25 493.45 418.25 M519.65 418.25 L519.65 419.85 524.2 419.85 524.2 432.0 526.0 432.0 526.0 419.85 Q528.3 419.85 530.6 418.25 L519.65 418.25 M536.6 418.25 L536.6 432.0 538.4 432.0 538.4 425.5 545.6 425.5 545.6 432.0 547.4 432.0 Q547.4 425.15 545.6 418.25 L545.6 423.9 538.4 423.9 538.4 418.25 536.6 418.25 M554.6 418.25 L554.6 426.2 Q554.6 428.35 555.15 429.65 555.65 430.9 556.9 431.55 558.15 432.25 560.05 432.3 562.05 432.25 563.3 431.45 564.5 430.7 565.0 429.5 565.45 428.25 565.45 426.2 L565.45 418.25 563.65 418.25 563.65 426.2 Q563.65 428.75 562.8 429.7 561.9 430.6 559.9 430.6 L557.9 430.15 Q557.1 429.65 556.45 426.2 L556.45 418.25 554.6 418.25 M572.6 418.25 L572.6 432.0 574.45 432.0 574.45 425.9 576.55 425.9 577.55 425.95 578.4 426.3 579.35 427.25 580.65 429.15 582.45 432.0 584.75 432.0 582.35 428.25 580.85 426.4 579.75 425.75 Q581.75 425.45 582.7 424.45 583.65 423.45 583.65 422.0 583.65 420.8 583.05 419.9 582.5 418.9 578.75 418.25 L572.6 418.25 M574.45 419.75 L574.45 424.3 578.35 424.3 580.3 424.05 Q581.0 423.8 581.4 423.25 L581.75 422.0 Q581.75 420.95 578.8 419.75 L574.45 419.75 M590.0 427.6 Q590.05 428.95 590.8 430.05 591.5 431.15 592.75 431.7 594.0 432.25 595.9 432.3 597.35 432.25 598.55 431.7 599.75 431.15 600.35 430.2 601.0 429.2 601.0 428.1 601.0 427.0 600.4 426.15 599.85 425.3 598.65 424.75 L595.6 423.85 Q593.35 423.3 592.85 422.9 592.3 422.4 592.3 421.65 592.3 420.75 593.05 420.2 593.8 419.55 595.45 419.6 597.05 419.55 597.9 420.25 598.7 420.9 598.85 422.25 L600.6 422.1 Q600.55 420.85 599.9 419.95 599.25 418.95 598.1 418.5 596.95 417.95 595.4 418.0 594.0 417.95 592.85 418.45 591.75 418.9 591.15 419.85 590.55 420.7 590.55 421.8 590.55 422.75 591.05 423.5 591.5 424.25 592.5 424.8 L595.15 425.65 597.6 426.3 Q598.5 426.65 598.85 427.15 599.25 427.6 598.85 429.45 598.45 430.0 597.65 430.3 L595.8 430.6 Q594.65 430.6 593.7 430.2 592.75 429.8 591.75 427.4 L590.0 427.6 M607.65 418.25 L607.65 432.0 612.6 432.0 614.85 431.75 616.5 431.1 617.75 429.85 618.65 427.8 Q619.05 426.6 619.05 425.05 619.05 423.15 618.5 421.75 617.95 420.3 616.85 419.4 616.0 418.65 612.4 418.25 L607.65 418.25 M609.45 419.85 L609.45 430.35 612.4 430.35 614.55 430.1 615.8 429.4 616.8 427.65 Q617.15 426.55 617.15 425.0 617.15 422.8 616.45 421.7 615.75 420.5 612.35 419.85 L609.45 419.85 M624.1 432.0 L626.05 432.0 627.55 427.85 633.35 427.85 634.95 432.0 637.05 432.0 Q634.25 425.15 629.4 418.25 L624.1 432.0 M628.1 426.35 L632.75 426.35 631.35 422.55 Q630.7 420.75 629.6 422.3 L628.1 426.35 M639.75 418.25 L645.05 426.15 645.05 432.0 646.9 432.0 646.9 426.15 652.4 418.25 650.25 418.25 647.6 422.3 644.7 422.4 642.0 418.25 639.75 418.25" fill="#ffffff" fill-opacity="0.0" fill-rule="evenodd" stroke="none">
      <animate attributeName="fill" dur="2s" repeatCount="indefinite" values="#ffffff;#001145"/>
      <animate attributeName="fill-opacity" dur="2s" repeatCount="indefinite" values="0.0;1.0"/>
      <animate attributeName="d" dur="2s" repeatCount="indefinite" values="M398.0 430.05 L398.0 432.0 399.95 432.0 399.95 430.05 398.0 430.05 M407.5 430.05 L407.5 432.0 Q408.5 432.0 409.45 430.05 L407.5 430.05 M417.0 430.05 L417.0 432.0 Q418.0 432.0 418.95 430.05 L417.0 430.05 M426.25 418.25 L426.25 432.0 436.55 432.0 436.55 430.35 428.1 430.35 428.1 425.7 435.75 425.7 435.75 424.05 428.1 424.05 428.1 419.85 Q432.2 419.85 436.25 418.25 L426.25 418.25 M441.8 418.25 L447.15 432.0 449.0 432.0 454.4 418.25 452.55 418.25 448.8 428.25 Q448.4 429.35 447.35 428.25 L443.75 418.25 441.8 418.25 M460.2 418.25 L460.2 432.0 470.5 432.0 470.5 430.35 462.05 430.35 462.05 425.7 469.7 425.7 469.7 424.05 462.05 424.05 462.05 419.85 Q466.15 419.85 470.2 418.25 L460.2 418.25 M477.2 418.25 L477.2 432.0 479.05 432.0 479.05 425.9 481.15 425.9 482.15 425.95 483.0 426.3 483.95 427.25 485.25 429.15 487.05 432.0 489.35 432.0 486.95 428.25 Q486.25 427.15 485.45 426.4 L484.35 425.75 Q486.35 425.45 487.3 424.45 488.25 423.45 488.25 422.0 488.25 420.8 487.65 419.9 487.1 418.9 483.35 418.25 L477.2 418.25 M479.05 419.75 L479.05 424.3 482.95 424.3 484.9 424.05 486.0 423.25 486.35 422.0 Q486.35 420.95 483.4 419.75 L479.05 419.75 M493.45 418.25 L498.75 426.15 498.75 432.0 500.6 432.0 500.6 426.15 506.1 418.25 503.95 418.25 501.3 422.3 498.4 422.4 495.7 418.25 493.45 418.25 M519.65 418.25 L519.65 419.85 524.2 419.85 524.2 432.0 526.0 432.0 526.0 419.85 Q528.3 419.85 530.6 418.25 L519.65 418.25 M536.6 418.25 L536.6 432.0 538.4 432.0 538.4 425.5 545.6 425.5 545.6 432.0 547.4 432.0 Q547.4 425.15 545.6 418.25 L545.6 423.9 538.4 423.9 538.4 418.25 536.6 418.25 M554.6 418.25 L554.6 426.2 Q554.6 428.35 555.15 429.65 555.65 430.9 556.9 431.55 558.15 432.25 560.05 432.3 562.05 432.25 563.3 431.45 564.5 430.7 565.0 429.5 565.45 428.25 565.45 426.2 L565.45 418.25 563.65 418.25 563.65 426.2 Q563.65 428.75 562.8 429.7 561.9 430.6 559.9 430.6 L557.9 430.15 Q557.1 429.65 556.45 426.2 L556.45 418.25 554.6 418.25 M572.6 418.25 L572.6 432.0 574.45 432.0 574.45 425.9 576.55 425.9 577.55 425.95 578.4 426.3 579.35 427.25 580.65 429.15 582.45 432.0 584.75 432.0 582.35 428.25 580.85 426.4 579.75 425.75 Q581.75 425.45 582.7 424.45 583.65 423.45 583.65 422.0 583.65 420.8 583.05 419.9 582.5 418.9 578.75 418.25 L572.6 418.25 M574.45 419.75 L574.45 424.3 578.35 424.3 580.3 424.05 Q581.0 423.8 581.4 423.25 L581.75 422.0 Q581.75 420.95 578.8 419.75 L574.45 419.75 M590.0 427.6 Q590.05 428.95 590.8 430.05 591.5 431.15 592.75 431.7 594.0 432.25 595.9 432.3 597.35 432.25 598.55 431.7 599.75 431.15 600.35 430.2 601.0 429.2 601.0 428.1 601.0 427.0 600.4 426.15 599.85 425.3 598.65 424.75 L595.6 423.85 Q593.35 423.3 592.85 422.9 592.3 422.4 592.3 421.65 592.3 420.75 593.05 420.2 593.8 419.55 595.45 419.6 597.05 419.55 597.9 420.25 598.7 420.9 598.85 422.25 L600.6 422.1 Q600.55 420.85 599.9 419.95 599.25 418.95 598.1 418.5 596.95 417.95 595.4 418.0 594.0 417.95 592.85 418.45 591.75 418.9 591.15 419.85 590.55 420.7 590.55 421.8 590.55 422.75 591.05 423.5 591.5 424.25 592.5 424.8 L595.15 425.65 597.6 426.3 Q598.5 426.65 598.85 427.15 599.25 427.6 598.85 429.45 598.45 430.0 597.65 430.3 L595.8 430.6 Q594.65 430.6 593.7 430.2 592.75 429.8 591.75 427.4 L590.0 427.6 M607.65 418.25 L607.65 432.0 612.6 432.0 614.85 431.75 616.5 431.1 617.75 429.85 618.65 427.8 Q619.05 426.6 619.05 425.05 619.05 423.15 618.5 421.75 617.95 420.3 616.85 419.4 616.0 418.65 612.4 418.25 L607.65 418.25 M609.45 419.85 L609.45 430.35 612.4 430.35 614.55 430.1 615.8 429.4 616.8 427.65 Q617.15 426.55 617.15 425.0 617.15 422.8 616.45 421.7 615.75 420.5 612.35 419.85 L609.45 419.85 M624.1 432.0 L626.05 432.0 627.55 427.85 633.35 427.85 634.95 432.0 637.05 432.0 Q634.25 425.15 629.4 418.25 L624.1 432.0 M628.1 426.35 L632.75 426.35 631.35 422.55 Q630.7 420.75 629.6 422.3 L628.1 426.35 M639.75 418.25 L645.05 426.15 645.05 432.0 646.9 432.0 646.9 426.15 652.4 418.25 650.25 418.25 647.6 422.3 644.7 422.4 642.0 418.25 639.75 418.25;M398.0 430.05 L398.0 432.0 399.95 432.0 399.95 430.05 398.0 430.05 M407.5 430.05 L407.5 432.0 Q408.5 432.0 409.45 430.05 L407.5 430.05 M417.0 430.05 L417.0 432.0 Q418.0 432.0 418.95 430.05 L417.0 430.05 M426.25 418.25 L426.25 432.0 436.55 432.0 436.55 430.35 428.1 430.35 428.1 425.7 435.75 425.7 435.75 424.05 428.1 424.05 428.1 419.85 Q432.2 419.85 436.25 418.25 L426.25 418.25 M441.8 418.25 L447.15 432.0 449.0 432.0 454.4 418.25 452.55 418.25 448.8 428.25 Q448.4 429.35 447.35 428.25 L443.75 418.25 441.8 418.25 M460.2 418.25 L460.2 432.0 470.5 432.0 470.5 430.35 462.05 430.35 462.05 425.7 469.7 425.7 469.7 424.05 462.05 424.05 462.05 419.85 Q466.15 419.85 470.2 418.25 L460.2 418.25 M477.2 418.25 L477.2 432.0 479.05 432.0 479.05 425.9 481.15 425.9 482.15 425.95 483.0 426.3 483.95 427.25 485.25 429.15 487.05 432.0 489.35 432.0 486.95 428.25 Q486.25 427.15 485.45 426.4 L484.35 425.75 Q486.35 425.45 487.3 424.45 488.25 423.45 488.25 422.0 488.25 420.8 487.65 419.9 487.1 418.9 483.35 418.25 L477.2 418.25 M479.05 419.75 L479.05 424.3 482.95 424.3 484.9 424.05 486.0 423.25 486.35 422.0 Q486.35 420.95 483.4 419.75 L479.05 419.75 M493.45 418.25 L498.75 426.15 498.75 432.0 500.6 432.0 500.6 426.15 506.1 418.25 503.95 418.25 501.3 422.3 498.4 422.4 495.7 418.25 493.45 418.25 M519.65 418.25 L519.65 419.85 524.2 419.85 524.2 432.0 526.0 432.0 526.0 419.85 Q528.3 419.85 530.6 418.25 L519.65 418.25 M536.6 418.25 L536.6 432.0 538.4 432.0 538.4 425.5 545.6 425.5 545.6 432.0 547.4 432.0 Q547.4 425.15 545.6 418.25 L545.6 423.9 538.4 423.9 538.4 418.25 536.6 418.25 M554.6 418.25 L554.6 426.2 Q554.6 428.35 555.15 429.65 555.65 430.9 556.9 431.55 558.15 432.25 560.05 432.3 562.05 432.25 563.3 431.45 564.5 430.7 565.0 429.5 565.45 428.25 565.45 426.2 L565.45 418.25 563.65 418.25 563.65 426.2 Q563.65 428.75 562.8 429.7 561.9 430.6 559.9 430.6 L557.9 430.15 Q557.1 429.65 556.45 426.2 L556.45 418.25 554.6 418.25 M572.6 418.25 L572.6 432.0 574.45 432.0 574.45 425.9 576.55 425.9 577.55 425.95 578.4 426.3 579.35 427.25 580.65 429.15 582.45 432.0 584.75 432.0 582.35 428.25 580.85 426.4 579.75 425.75 Q581.75 425.45 582.7 424.45 583.65 423.45 583.65 422.0 583.65 420.8 583.05 419.9 582.5 418.9 578.75 418.25 L572.6 418.25 M574.45 419.75 L574.45 424.3 578.35 424.3 580.3 424.05 Q581.0 423.8 581.4 423.25 L581.75 422.0 Q581.75 420.95 578.8 419.75 L574.45 419.75 M590.0 427.6 Q590.05 428.95 590.8 430.05 591.5 431.15 592.75 431.7 594.0 432.25 595.9 432.3 597.35 432.25 598.55 431.7 599.75 431.15 600.35 430.2 601.0 429.2 601.0 428.1 601.0 427.0 600.4 426.15 599.85 425.3 598.65 424.75 L595.6 423.85 Q593.35 423.3 592.85 422.9 592.3 422.4 592.3 421.65 592.3 420.75 593.05 420.2 593.8 419.55 595.45 419.6 597.05 419.55 597.9 420.25 598.7 420.9 598.85 422.25 L600.6 422.1 Q600.55 420.85 599.9 419.95 599.25 418.95 598.1 418.5 596.95 417.95 595.4 418.0 594.0 417.95 592.85 418.45 591.75 418.9 591.15 419.85 590.55 420.7 590.55 421.8 590.55 422.75 591.05 423.5 591.5 424.25 592.5 424.8 L595.15 425.65 597.6 426.3 Q598.5 426.65 598.85 427.15 599.25 427.6 598.85 429.45 598.45 430.0 597.65 430.3 L595.8 430.6 Q594.65 430.6 593.7 430.2 592.75 429.8 591.75 427.4 L590.0 427.6 M607.65 418.25 L607.65 432.0 612.6 432.0 614.85 431.75 616.5 431.1 617.75 429.85 618.65 427.8 Q619.05 426.6 619.05 425.05 619.05 423.15 618.5 421.75 617.95 420.3 616.85 419.4 616.0 418.65 612.4 418.25 L607.65 418.25 M609.45 419.85 L609.45 430.35 612.4 430.35 614.55 430.1 615.8 429.4 616.8 427.65 Q617.15 426.55 617.15 425.0 617.15 422.8 616.45 421.7 615.75 420.5 612.35 419.85 L609.45 419.85 M624.1 432.0 L626.05 432.0 627.55 427.85 633.35 427.85 634.95 432.0 637.05 432.0 Q634.25 425.15 629.4 418.25 L624.1 432.0 M628.1 426.35 L632.75 426.35 631.35 422.55 Q630.7 420.75 629.6 422.3 L628.1 426.35 M639.75 418.25 L645.05 426.15 645.05 432.0 646.9 432.0 646.9 426.15 652.4 418.25 650.25 418.25 647.6 422.3 644.7 422.4 642.0 418.25 639.75 418.25"/>
    </path>
    <path d="M398.0 430.05 L399.95 430.05 399.95 432.0 398.0 432.0 398.0 430.05" fill="none" stroke="#000000" stroke-linecap="round" stroke-linejoin="round" stroke-opacity="0.0" stroke-width="1.0">
      <animate attributeName="stroke" dur="2s" repeatCount="indefinite" values="#000000;#000001"/>
      <animate attributeName="stroke-width" dur="2s" repeatCount="indefinite" values="0.0;0.0"/>
      <animate attributeName="fill-opacity" dur="2s" repeatCount="indefinite" values="0.0;0.0"/>
      <animate attributeName="d" dur="2s" repeatCount="indefinite" values="M398.0 430.05 L399.95 430.05 399.95 432.0 398.0 432.0 398.0 430.05;M398.0 430.05 L399.95 430.05 399.95 432.0 398.0 432.0 398.0 430.05"/>
    </path>
    <path d="M407.5 430.05 L409.45 430.05 Q408.5 432.0 407.5 432.0 L407.5 430.05" fill="none" stroke="#000000" stroke-linecap="round" stroke-linejoin="round" stroke-opacity="0.0" stroke-width="1.0">
      <animate attributeName="stroke" dur="2s" repeatCount="indefinite" values="#000000;#000001"/>
      <animate attributeName="stroke-width" dur="2s" repeatCount="indefinite" values="0.0;0.0"/>
      <animate attributeName="fill-opacity" dur="2s" repeatCount="indefinite" values="0.0;0.0"/>
      <animate attributeName="d" dur="2s" repeatCount="indefinite" values="M407.5 430.05 L409.45 430.05 Q408.5 432.0 407.5 432.0 L407.5 430.05;M407.5 430.05 L409.45 430.05 Q408.5 432.0 407.5 432.0 L407.5 430.05"/>
    </path>
    <path d="M417.0 430.05 L418.95 430.05 Q418.0 432.0 417.0 432.0 L417.0 430.05" fill="none" stroke="#000000" stroke-linecap="round" stroke-linejoin="round" stroke-opacity="0.0" stroke-width="1.0">
      <animate attributeName="stroke" dur="2s" repeatCount="indefinite" values="#000000;#000001"/>
      <animate attributeName="stroke-width" dur="2s" repeatCount="indefinite" values="0.0;0.0"/>
      <animate attributeName="fill-opacity" dur="2s" repeatCount="indefinite" values="0.0;0.0"/>
      <animate attributeName="d" dur="2s" repeatCount="indefinite" values="M417.0 430.05 L418.95 430.05 Q418.0 432.0 417.0 432.0 L417.0 430.05;M417.0 430.05 L418.95 430.05 Q418.0 432.0 417.0 432.0 L417.0 430.05"/>
    </path>
    <path d="M426.25 418.25 L436.25 418.25 Q432.2 419.85 428.1 419.85 L428.1 424.05 435.75 424.05 435.75 425.7 428.1 425.7 428.1 430.35 436.55 430.35 436.55 432.0 426.25 432.0 426.25 418.25" fill="none" stroke="#000000" stroke-linecap="round" stroke-linejoin="round" stroke-opacity="0.0" stroke-width="1.0">
      <animate attributeName="stroke" dur="2s" repeatCount="indefinite" values="#000000;#000001"/>
      <animate attributeName="stroke-width" dur="2s" repeatCount="indefinite" values="0.0;0.0"/>
      <animate attributeName="fill-opacity" dur="2s" repeatCount="indefinite" values="0.0;0.0"/>
      <animate attributeName="d" dur="2s" repeatCount="indefinite" values="M426.25 418.25 L436.25 418.25 Q432.2 419.85 428.1 419.85 L428.1 424.05 435.75 424.05 435.75 425.7 428.1 425.7 428.1 430.35 436.55 430.35 436.55 432.0 426.25 432.0 426.25 418.25;M426.25 418.25 L436.25 418.25 Q432.2 419.85 428.1 419.85 L428.1 424.05 435.75 424.05 435.75 425.7 428.1 425.7 428.1 430.35 436.55 430.35 436.55 432.0 426.25 432.0 426.25 418.25"/>
    </path>
    <path d="M441.8 418.25 L443.75 418.25 447.35 428.25 Q448.4 429.35 448.8 428.25 L452.55 418.25 454.4 418.25 449.0 432.0 447.15 432.0 441.8 418.25" fill="none" stroke="#000000" stroke-linecap="round" stroke-linejoin="round" stroke-opacity="0.0" stroke-width="1.0">
      <animate attributeName="stroke" dur="2s" repeatCount="indefinite" values="#000000;#000001"/>
      <animate attributeName="stroke-width" dur="2s" repeatCount="indefinite" values="0.0;0.0"/>
      <animate attributeName="fill-opacity" dur="2s" repeatCount="indefinite" values="0.0;0.0"/>
      <animate attributeName="d" dur="2s" repeatCount="indefinite" values="M441.8 418.25 L443.75 418.25 447.35 428.25 Q448.4 429.35 448.8 428.25 L452.55 418.25 454.4 418.25 449.0 432.0 447.15 432.0 441.8 418.25;M441.8 418.25 L443.75 418.25 447.35 428.25 Q448.4 429.35 448.8 428.25 L452.55 418.25 454.4 418.25 449.0 432.0 447.15 432.0 441.8 418.25"/>
    </path>
    <path d="M460.2 418.25 L470.2 418.25 Q466.15 419.85 462.05 419.85 L462.05 424.05 469.7 424.05 469.7 425.7 462.05 425.7 462.05 430.35 470.5 430.35 470.5 432.0 460.2 432.0 460.2 418.25" fill="none" stroke="#000000" stroke-linecap="round" stroke-linejoin="round" stroke-opacity="0.0" stroke-width="1.0">
      <animate attributeName="stroke" dur="2s" repeatCount="indefinite" values="#000000;#000001"/>
      <animate attributeName="stroke-width" dur="2s" repeatCount="indefinite" values="0.0;0.0"/>
      <animate attributeName="fill-opacity" dur="2s" repeatCount="indefinite" values="0.0;0.0"/>
      <animate attributeName="d" dur="2s" repeatCount="indefinite" values="M460.2 418.25 L470.2 418.25 Q466.15 419.85 462.05 419.85 L462.05 424.05 469.7 424.05 469.7 425.7 462.05 425.7 462.05 430.35 470.5 430.35 470.5 432.0 460.2 432.0 460.2 418.25;M460.2 418.25 L470.2 418.25 Q466.15 419.85 462.05 419.85 L462.05 424.05 469.7 424.05 469.7 425.7 462.05 425.7 462.05 430.35 470.5 430.35 470.5 432.0 460.2 432.0 460.2 418.25"/>
    </path>
    <path d="M477.2 418.25 L483.35 418.25 Q487.1 418.9 487.65 419.9 488.25 420.8 488.25 422.0 488.25 423.45 487.3 424.45 486.35 425.45 484.35 425.75 L485.45 426.4 Q486.25 427.15 486.95 428.25 L489.35 432.0 487.05 432.0 485.25 429.15 483.95 427.25 483.0 426.3 482.15 425.95 481.15 425.9 479.05 425.9 479.05 432.0 477.2 432.0 477.2 418.25" fill="none" stroke="#000000" stroke-linecap="round" stroke-linejoin="round" stroke-opacity="0.0" stroke-width="1.0">
      <animate attributeName="stroke" dur="2s" repeatCount="indefinite" values="#000000;#000001"/>
      <animate attributeName="stroke-width" dur="2s" repeatCount="indefinite" values="0.0;0.0"/>
      <animate attributeName="fill-opacity" dur="2s" repeatCount="indefinite" values="0.0;0.0"/>
      <animate attributeName="d" dur="2s" repeatCount="indefinite" values="M477.2 418.25 L483.35 418.25 Q487.1 418.9 487.65 419.9 488.25 420.8 488.25 422.0 488.25 423.45 487.3 424.45 486.35 425.45 484.35 425.75 L485.45 426.4 Q486.25 427.15 486.95 428.25 L489.35 432.0 487.05 432.0 485.25 429.15 483.95 427.25 483.0 426.3 482.15 425.95 481.15 425.9 479.05 425.9 479.05 432.0 477.2 432.0 477.2 418.25;M477.2 418.25 L483.35 418.25 Q487.1 418.9 487.65 419.9 488.25 420.8 488.25 422.0 488.25 423.45 487.3 424.45 486.35 425.45 484.35 425.75 L485.45 426.4 Q486.25 427.15 486.95 428.25 L489.35 432.0 487.05 432.0 485.25 429.15 483.95 427.25 483.0 426.3 482.15 425.95 481.15 425.9 479.05 425.9 479.05 432.0 477.2 432.0 477.2 418.25"/>
    </path>
    <path d="M479.05 419.75 L483.4 419.75 Q486.35 420.95 486.35 422.0 L486.0 423.25 484.9 424.05 482.95 424.3 479.05 424.3 479.05 419.75" fill="none" stroke="#000000" stroke-linecap="round" stroke-linejoin="round" stroke-opacity="0.0" stroke-width="1.0">
      <animate attributeName="stroke" dur="2s" repeatCount="indefinite" values="#000000;#000001"/>
      <animate attributeName="stroke-width" dur="2s" repeatCount="indefinite" values="0.0;0.0"/>
      <animate attributeName="fill-opacity" dur="2s" repeatCount="indefinite" values="0.0;0.0"/>
      <animate attributeName="d" dur="2s" repeatCount="indefinite" values="M479.05 419.75 L483.4 419.75 Q486.35 420.95 486.35 422.0 L486.0 423.25 484.9 424.05 482.95 424.3 479.05 424.3 479.05 419.75;M479.05 419.75 L483.4 419.75 Q486.35 420.95 486.35 422.0 L486.0 423.25 484.9 424.05 482.95 424.3 479.05 424.3 479.05 419.75"/>
    </path>
    <path d="M493.45 418.25 L495.7 418.25 498.4 422.4 501.3 422.3 503.95 418.25 506.1 418.25 500.6 426.15 500.6 432.0 498.75 432.0 498.75 426.15 493.45 418.25" fill="none" stroke="#000000" stroke-linecap="round" stroke-linejoin="round" stroke-opacity="0.0" stroke-width="1.0">
      <animate attributeName="stroke" dur="2s" repeatCount="indefinite" values="#000000;#000001"/>
      <animate attributeName="stroke-width" dur="2s" repeatCount="indefinite" values="0.0;0.0"/>
      <animate attributeName="fill-opacity" dur="2s" repeatCount="indefinite" values="0.0;0.0"/>
      <animate attributeName="d" dur="2s" repeatCount="indefinite" values="M493.45 418.25 L495.7 418.25 498.4 422.4 501.3 422.3 503.95 418.25 506.1 418.25 500.6 426.15 500.6 432.0 498.75 432.0 498.75 426.15 493.45 418.25;M493.45 418.25 L495.7 418.25 498.4 422.4 501.3 422.3 503.95 418.25 506.1 418.25 500.6 426.15 500.6 432.0 498.75 432.0 498.75 426.15 493.45 418.25"/>
    </path>
    <path d="M519.65 418.25 L530.6 418.25 Q528.3 419.85 526.0 419.85 L526.0 432.0 524.2 432.0 524.2 419.85 519.65 419.85 519.65 418.25" fill="none" stroke="#000000" stroke-linecap="round" stroke-linejoin="round" stroke-opacity="0.0" stroke-width="1.0">
      <animate attributeName="stroke" dur="2s" repeatCount="indefinite" values="#000000;#000001"/>
      <animate attributeName="stroke-width" dur="2s" repeatCount="indefinite" values="0.0;0.0"/>
      <animate attributeName="fill-opacity" dur="2s" repeatCount="indefinite" values="0.0;0.0"/>
      <animate attributeName="d" dur="2s" repeatCount="indefinite" values="M519.65 418.25 L530.6 418.25 Q528.3 419.85 526.0 419.85 L526.0 432.0 524.2 432.0 524.2 419.85 519.65 419.85 519.65 418.25;M519.65 418.25 L530.6 418.25 Q528.3 419.85 526.0 419.85 L526.0 432.0 524.2 432.0 524.2 419.85 519.65 419.85 519.65 418.25"/>
    </path>
    <path d="M536.6 418.25 L538.4 418.25 538.4 423.9 545.6 423.9 545.6 418.25 Q547.4 425.15 547.4 432.0 L545.6 432.0 545.6 425.5 538.4 425.5 538.4 432.0 536.6 432.0 536.6 418.25" fill="none" stroke="#000000" stroke-linecap="round" stroke-linejoin="round" stroke-opacity="0.0" stroke-width="1.0">
      <animate attributeName="stroke" dur="2s" repeatCount="indefinite" values="#000000;#000001"/>
      <animate attributeName="stroke-width" dur="2s" repeatCount="indefinite" values="0.0;0.0"/>
      <animate attributeName="fill-opacity" dur="2s" repeatCount="indefinite" values="0.0;0.0"/>
      <animate attributeName="d" dur="2s" repeatCount="indefinite" values="M536.6 418.25 L538.4 418.25 538.4 423.9 545.6 423.9 545.6 418.25 Q547.4 425.15 547.4 432.0 L545.6 432.0 545.6 425.5 538.4 425.5 538.4 432.0 536.6 432.0 536.6 418.25;M536.6 418.25 L538.4 418.25 538.4 423.9 545.6 423.9 545.6 418.25 Q547.4 425.15 547.4 432.0 L545.6 432.0 545.6 425.5 538.4 425.5 538.4 432.0 536.6 432.0 536.6 418.25"/>
    </path>
    <path d="M554.6 418.25 L556.45 418.25 556.45 426.2 Q557.1 429.65 557.9 430.15 L559.9 430.6 Q561.9 430.6 562.8 429.7 563.65 428.75 563.65 426.2 L563.65 418.25 565.45 418.25 565.45 426.2 Q565.45 428.25 565.0 429.5 564.5 430.7 563.3 431.45 562.05 432.25 560.05 432.3 558.15 432.25 556.9 431.55 555.65 430.9 555.15 429.65 554.6 428.35 554.6 426.2 L554.6 418.25" fill="none" stroke="#000000" stroke-linecap="round" stroke-linejoin="round" stroke-opacity="0.0" stroke-width="1.0">
      <animate attributeName="stroke" dur="2s" repeatCount="indefinite" values="#000000;#000001"/>
      <animate attributeName="stroke-width" dur="2s" repeatCount="indefinite" values="0.0;0.0"/>
      <animate attributeName="fill-opacity" dur="2s" repeatCount="indefinite" values="0.0;0.0"/>
      <animate attributeName="d" dur="2s" repeatCount="indefinite" values="M554.6 418.25 L556.45 418.25 556.45 426.2 Q557.1 429.65 557.9 430.15 L559.9 430.6 Q561.9 430.6 562.8 429.7 563.65 428.75 563.65 426.2 L563.65 418.25 565.45 418.25 565.45 426.2 Q565.45 428.25 565.0 429.5 564.5 430.7 563.3 431.45 562.05 432.25 560.05 432.3 558.15 432.25 556.9 431.55 555.65 430.9 555.15 429.65 554.6 428.35 554.6 426.2 L554.6 418.25;M554.6 418.25 L556.45 418.25 556.45 426.2 Q557.1 429.65 557.9 430.15 L559.9 430.6 Q561.9 430.6 562.8 429.7 563.65 428.75 563.65 426.2 L563.65 418.25 565.45 418.25 565.45 426.2 Q565.45 428.25 565.0 429.5 564.5 430.7 563.3 431.45 562.05 432.25 560.05 432.3 558.15 432.25 556.9 431.55 555.65 430.9 555.15 429.65 554.6 428.35 554.6 426.2 L554.6 418.25"/>
    </path>
    <path d="M572.6 418.25 L578.75 418.25 Q582.5 418.9 583.05 419.9 583.65 420.8 583.65 422.0 583.65 423.45 582.7 424.45 581.75 425.45 579.75 425.75 L580.85 426.4 582.35 428.25 584.75 432.0 582.45 432.0 580.65 429.15 579.35 427.25 578.4 426.3 577.55 425.95 576.55 425.9 574.45 425.9 574.45 432.0 572.6 432.0 572.6 418.25" fill="none" stroke="#000000" stroke-linecap="round" stroke-linejoin="round" stroke-opacity="0.0" stroke-width="1.0">
      <animate attributeName="stroke" dur="2s" repeatCount="indefinite" values="#000000;#000001"/>
      <animate attributeName="stroke-width" dur="2s" repeatCount="indefinite" values="0.0;0.0"/>
      <animate attributeName="fill-opacity" dur="2s" repeatCount="indefinite" values="0.0;0.0"/>
      <animate attributeName="d" dur="2s" repeatCount="indefinite" values="M572.6 418.25 L578.75 418.25 Q582.5 418.9 583.05 419.9 583.65 420.8 583.65 422.0 583.65 423.45 582.7 424.45 581.75 425.45 579.75 425.75 L580.85 426.4 582.35 428.25 584.75 432.0 582.45 432.0 580.65 429.15 579.35 427.25 578.4 426.3 577.55 425.95 576.55 425.9 574.45 425.9 574.45 432.0 572.6 432.0 572.6 418.25;M572.6 418.25 L578.75 418.25 Q582.5 418.9 583.05 419.9 583.65 420.8 583.65 422.0 583.65 423.45 582.7 424.45 581.75 425.45 579.75 425.75 L580.85 426.4 582.35 428.25 584.75 432.0 582.45 432.0 580.65 429.15 579.35 427.25 578.4 426.3 577.55 425.95 576.55 425.9 574.45 425.9 574.45 432.0 572.6 432.0 572.6 418.25"/>
    </path>
    <path d="M574.45 419.75 L578.8 419.75 Q581.75 420.95 581.75 422.0 L581.4 423.25 Q581.0 423.8 580.3 424.05 L578.35 424.3 574.45 424.3 574.45 419.75" fill="none" stroke="#000000" stroke-linecap="round" stroke-linejoin="round" stroke-opacity="0.0" stroke-width="1.0">
      <animate attributeName="stroke" dur="2s" repeatCount="indefinite" values="#000000;#000001"/>
      <animate attributeName="stroke-width" dur="2s" repeatCount="indefinite" values="0.0;0.0"/>
      <animate attributeName="fill-opacity" dur="2s" repeatCount="indefinite" values="0.0;0.0"/>
      <animate attributeName="d" dur="2s" repeatCount="indefinite" values="M574.45 419.75 L578.8 419.75 Q581.75 420.95 581.75 422.0 L581.4 423.25 Q581.0 423.8 580.3 424.05 L578.35 424.3 574.45 424.3 574.45 419.75;M574.45 419.75 L578.8 419.75 Q581.75 420.95 581.75 422.0 L581.4 423.25 Q581.0 423.8 580.3 424.05 L578.35 424.3 574.45 424.3 574.45 419.75"/>
    </path>
    <path d="M590.0 427.6 L591.75 427.4 Q592.75 429.8 593.7 430.2 594.65 430.6 595.8 430.6 L597.65 430.3 Q598.45 430.0 598.85 429.45 599.25 427.6 598.85 427.15 598.5 426.65 597.6 426.3 L595.15 425.65 592.5 424.8 Q591.5 424.25 591.05 423.5 590.55 422.75 590.55 421.8 590.55 420.7 591.15 419.85 591.75 418.9 592.85 418.45 594.0 417.95 595.4 418.0 596.95 417.95 598.1 418.5 599.25 418.95 599.9 419.95 600.55 420.85 600.6 422.1 L598.85 422.25 Q598.7 420.9 597.9 420.25 597.05 419.55 595.45 419.6 593.8 419.55 593.05 420.2 592.3 420.75 592.3 421.65 592.3 422.4 592.85 422.9 593.35 423.3 595.6 423.85 L598.65 424.75 Q599.85 425.3 600.4 426.15 601.0 427.0 601.0 428.1 601.0 429.2 600.35 430.2 599.75 431.15 598.55 431.7 597.35 432.25 595.9 432.3 594.0 432.25 592.75 431.7 591.5 431.15 590.8 430.05 590.05 428.95 590.0 427.6" fill="none" stroke="#000000" stroke-linecap="round" stroke-linejoin="round" stroke-opacity="0.0" stroke-width="1.0">
      <animate attributeName="stroke" dur="2s" repeatCount="indefinite" values="#000000;#000001"/>
      <animate attributeName="stroke-width" dur="2s" repeatCount="indefinite" values="0.0;0.0"/>
      <animate attributeName="fill-opacity" dur="2s" repeatCount="indefinite" values="0.0;0.0"/>
      <animate attributeName="d" dur="2s" repeatCount="indefinite" values="M590.0 427.6 L591.75 427.4 Q592.75 429.8 593.7 430.2 594.65 430.6 595.8 430.6 L597.65 430.3 Q598.45 430.0 598.85 429.45 599.25 427.6 598.85 427.15 598.5 426.65 597.6 426.3 L595.15 425.65 592.5 424.8 Q591.5 424.25 591.05 423.5 590.55 422.75 590.55 421.8 590.55 420.7 591.15 419.85 591.75 418.9 592.85 418.45 594.0 417.95 595.4 418.0 596.95 417.95 598.1 418.5 599.25 418.95 599.9 419.95 600.55 420.85 600.6 422.1 L598.85 422.25 Q598.7 420.9 597.9 420.25 597.05 419.55 595.45 419.6 593.8 419.55 593.05 420.2 592.3 420.75 592.3 421.65 592.3 422.4 592.85 422.9 593.35 423.3 595.6 423.85 L598.65 424.75 Q599.85 425.3 600.4 426.15 601.0 427.0 601.0 428.1 601.0 429.2 600.35 430.2 599.75 431.15 598.55 431.7 597.35 432.25 595.9 432.3 594.0 432.25 592.75 431.7 591.5 431.15 590.8 430.05 590.05 428.95 590.0 427.6;M590.0 427.6 L591.75 427.4 Q592.75 429.8 593.7 430.2 594.65 430.6 595.8 430.6 L597.65 430.3 Q598.45 430.0 598.85 429.45 599.25 427.6 598.85 427.15 598.5 426.65 597.6 426.3 L595.15 425.65 592.5 424.8 Q591.5 424.25 591.05 423.5 590.55 422.75 590.55 421.8 590.55 420.7 591.15 419.85 591.75 418.9 592.85 418.45 594.0 417.95 595.4 418.0 596.95 417.95 598.1 418.5 599.25 418.95 599.9 419.95 600.55 420.85 600.6 422.1 L598.85 422.25 Q598.7 420.9 597.9 420.25 597.05 419.55 595.45 419.6 593.8 419.55 593.05 420.2 592.3 420.75 592.3 421.65 592.3 422.4 592.85 422.9 593.35 423.3 595.6 423.85 L598.65 424.75 Q599.85 425.3 600.4 426.15 601.0 427.0 601.0 428.1 601.0 429.2 600.35 430.2 599.75 431.15 598.55 431.7 597.35 432.25 595.9 432.3 594.0 432.25 592.75 431.7 591.5 431.15 590.8 430.05 590.05 428.95 590.0 427.6"/>
    </path>
    <path d="M607.65 418.25 L612.4 418.25 Q616.0 418.65 616.85 419.4 617.95 420.3 618.5 421.75 619.05 423.15 619.05 425.05 619.05 426.6 618.65 427.8 L617.75 429.85 616.5 431.1 614.85 431.75 612.6 432.0 607.65 432.0 607.65 418.25" fill="none" stroke="#000000" stroke-linecap="round" stroke-linejoin="round" stroke-opacity="0.0" stroke-width="1.0">
      <animate attributeName="stroke" dur="2s" repeatCount="indefinite" values="#000000;#000001"/>
      <animate attributeName="stroke-width" dur="2s" repeatCount="indefinite" values="0.0;0.0"/>
      <animate attributeName="fill-opacity" dur="2s" repeatCount="indefinite" values="0.0;0.0"/>
      <animate attributeName="d" dur="2s" repeatCount="indefinite" values="M607.65 418.25 L612.4 418.25 Q616.0 418.65 616.85 419.4 617.95 420.3 618.5 421.75 619.05 423.15 619.05 425.05 619.05 426.6 618.65 427.8 L617.75 429.85 616.5 431.1 614.85 431.75 612.6 432.0 607.65 432.0 607.65 418.25;M607.65 418.25 L612.4 418.25 Q616.0 418.65 616.85 419.4 617.95 420.3 618.5 421.75 619.05 423.15 619.05 425.05 619.05 426.6 618.65 427.8 L617.75 429.85 616.5 431.1 614.85 431.75 612.6 432.0 607.65 432.0 607.65 418.25"/>
    </path>
    <path d="M609.45 419.85 L612.35 419.85 Q615.75 420.5 616.45 421.7 617.15 422.8 617.15 425.0 617.15 426.55 616.8 427.65 L615.8 429.4 614.55 430.1 612.4 430.35 609.45 430.35 609.45 419.85" fill="none" stroke="#000000" stroke-linecap="round" stroke-linejoin="round" stroke-opacity="0.0" stroke-width="1.0">
      <animate attributeName="stroke" dur="2s" repeatCount="indefinite" values="#000000;#000001"/>
      <animate attributeName="stroke-width" dur="2s" repeatCount="indefinite" values="0.0;0.0"/>
      <animate attributeName="fill-opacity" dur="2s" repeatCount="indefinite" values="0.0;0.0"/>
      <animate attributeName="d" dur="2s" repeatCount="indefinite" values="M609.45 419.85 L612.35 419.85 Q615.75 420.5 616.45 421.7 617.15 422.8 617.15 425.0 617.15 426.55 616.8 427.65 L615.8 429.4 614.55 430.1 612.4 430.35 609.45 430.35 609.45 419.85;M609.45 419.85 L612.35 419.85 Q615.75 420.5 616.45 421.7 617.15 422.8 617.15 425.0 617.15 426.55 616.8 427.65 L615.8 429.4 614.55 430.1 612.4 430.35 609.45 430.35 609.45 419.85"/>
    </path>
    <path d="M624.1 432.0 L629.4 418.25 Q634.25 425.15 637.05 432.0 L634.95 432.0 633.35 427.85 627.55 427.85 626.05 432.0 624.1 432.0" fill="none" stroke="#000000" stroke-linecap="round" stroke-linejoin="round" stroke-opacity="0.0" stroke-width="1.0">
      <animate attributeName="stroke" dur="2s" repeatCount="indefinite" values="#000000;#000001"/>
      <animate attributeName="stroke-width" dur="2s" repeatCount="indefinite" values="0.0;0.0"/>
      <animate attributeName="fill-opacity" dur="2s" repeatCount="indefinite" values="0.0;0.0"/>
      <animate attributeName="d" dur="2s" repeatCount="indefinite" values="M624.1 432.0 L629.4 418.25 Q634.25 425.15 637.05 432.0 L634.95 432.0 633.35 427.85 627.55 427.85 626.05 432.0 624.1 432.0;M624.1 432.0 L629.4 418.25 Q634.25 425.15 637.05 432.0 L634.95 432.0 633.35 427.85 627.55 427.85 626.05 432.0 624.1 432.0"/>
    </path>
    <path d="M628.1 426.35 L629.6 422.3 Q630.7 420.75 631.35 422.55 L632.75 426.35 628.1 426.35" fill="none" stroke="#000000" stroke-linecap="round" stroke-linejoin="round" stroke-opacity="0.0" stroke-width="1.0">
      <animate attributeName="stroke" dur="2s" repeatCount="indefinite" values="#000000;#000001"/>
      <animate attributeName="stroke-width" dur="2s" repeatCount="indefinite" values="0.0;0.0"/>
      <animate attributeName="fill-opacity" dur="2s" repeatCount="indefinite" values="0.0;0.0"/>
      <animate attributeName="d" dur="2s" repeatCount="indefinite" values="M628.1 426.35 L629.6 422.3 Q630.7 420.75 631.35 422.55 L632.75 426.35 628.1 426.35;M628.1 426.35 L629.6 422.3 Q630.7 420.75 631.35 422.55 L632.75 426.35 628.1 426.35"/>
    </path>
    <path d="M639.75 418.25 L642.0 418.25 644.7 422.4 647.6 422.3 650.25 418.25 652.4 418.25 646.9 426.15 646.9 432.0 645.05 432.0 645.05 426.15 639.75 418.25" fill="none" stroke="#000000" stroke-linecap="round" stroke-linejoin="round" stroke-opacity="0.0" stroke-width="1.0">
      <animate attributeName="stroke" dur="2s" repeatCount="indefinite" values="#000000;#000001"/>
      <animate attributeName="stroke-width" dur="2s" repeatCount="indefinite" values="0.0;0.0"/>
      <animate attributeName="fill-opacity" dur="2s" repeatCount="indefinite" values="0.0;0.0"/>
      <animate attributeName="d" dur="2s" repeatCount="indefinite" values="M639.75 418.25 L642.0 418.25 644.7 422.4 647.6 422.3 650.25 418.25 652.4 418.25 646.9 426.15 646.9 432.0 645.05 432.0 645.05 426.15 639.75 418.25;M639.75 418.25 L642.0 418.25 644.7 422.4 647.6 422.3 650.25 418.25 652.4 418.25 646.9 426.15 646.9 432.0 645.05 432.0 645.05 426.15 639.75 418.25"/>
    </path>
  </g>
</svg>
