<?xml version="1.0" encoding="UTF-8" standalone="no"?>
<svg xmlns:xlink="http://www.w3.org/1999/xlink" height="4.8px" width="3.6px" xmlns="http://www.w3.org/2000/svg">
  <g transform="matrix(1.0, 0.0, 0.0, 1.0, 1.85, 2.5)">
    <path d="M-1.85 -0.15 Q-1.85 0.9 -1.3 1.6 -0.75 2.3 -0.05 2.3 0.7 2.3 1.2 1.6 1.75 0.9 1.75 -0.15 1.75 -1.05 1.2 -1.8 0.7 -2.5 -0.05 -2.5 -0.75 -2.5 -1.3 -1.8 -1.85 -1.05 -1.85 -0.15" fill="#ff3300" fill-rule="evenodd" stroke="none">
      <animate attributeName="fill" dur="2s" repeatCount="indefinite" values="#ff3300;#ff9901"/>
      <animate attributeName="fill-opacity" dur="2s" repeatCount="indefinite" values="1.0;1.0"/>
      <animate attributeName="d" dur="2s" repeatCount="indefinite" values="M-1.85 -0.15 Q-1.85 0.9 -1.3 1.6 -0.75 2.3 -0.05 2.3 0.7 2.3 1.2 1.6 1.75 0.9 1.75 -0.15 1.75 -1.05 1.2 -1.8 0.7 -2.5 -0.05 -2.5 -0.75 -2.5 -1.3 -1.8 -1.85 -1.05 -1.85 -0.15;M-1.85 -0.15 Q-1.85 0.9 -1.3 1.6 -0.75 2.3 -0.05 2.3 0.7 2.3 1.2 1.6 1.75 0.9 1.75 -0.15 1.75 -1.05 1.2 -1.8 0.7 -2.5 -0.05 -2.5 -0.75 -2.5 -1.3 -1.8 -1.85 -1.05 -1.85 -0.15"/>
    </path>
    <path d="M-1.85 -0.15 Q-1.85 -1.05 -1.3 -1.8 -0.75 -2.5 -0.05 -2.5 0.7 -2.5 1.2 -1.8 1.75 -1.05 1.75 -0.15 1.75 0.9 1.2 1.6 0.7 2.3 -0.05 2.3 -0.75 2.3 -1.3 1.6 -1.85 0.9 -1.85 -0.15" fill="none" stroke="#000000" stroke-linecap="round" stroke-linejoin="round" stroke-opacity="0.0" stroke-width="1.0">
      <animate attributeName="stroke" dur="2s" repeatCount="indefinite" values="#000000;#000001"/>
      <animate attributeName="stroke-width" dur="2s" repeatCount="indefinite" values="0.0;0.0"/>
      <animate attributeName="fill-opacity" dur="2s" repeatCount="indefinite" values="0.0;0.0"/>
      <animate attributeName="d" dur="2s" repeatCount="indefinite" values="M-1.85 -0.15 Q-1.85 -1.05 -1.3 -1.8 -0.75 -2.5 -0.05 -2.5 0.7 -2.5 1.2 -1.8 1.75 -1.05 1.75 -0.15 1.75 0.9 1.2 1.6 0.7 2.3 -0.05 2.3 -0.75 2.3 -1.3 1.6 -1.85 0.9 -1.85 -0.15;M-1.85 -0.15 Q-1.85 -1.05 -1.3 -1.8 -0.75 -2.5 -0.05 -2.5 0.7 -2.5 1.2 -1.8 1.75 -1.05 1.75 -0.15 1.75 0.9 1.2 1.6 0.7 2.3 -0.05 2.3 -0.75 2.3 -1.3 1.6 -1.85 0.9 -1.85 -0.15"/>
    </path>
  </g>
</svg>
