<?xml version="1.0" encoding="UTF-8" standalone="no"?>
<svg xmlns:xlink="http://www.w3.org/1999/xlink" height="10.2px" width="10.2px" xmlns="http://www.w3.org/2000/svg">
  <g transform="matrix(1.0, 0.0, 0.0, 1.0, 4.5, -7.75)">
    <path d="M-4.5 12.85 Q-4.5 14.9 -2.95 16.4 -1.45 17.95 0.6 17.95 2.7 17.95 4.2 16.4 5.7 14.9 5.7 12.85 5.7 10.75 4.2 9.25 2.7 7.75 0.6 7.75 -1.45 7.75 -2.95 9.25 -4.5 10.75 -4.5 12.85" fill="#ffffff" fill-opacity="0.2509804" fill-rule="evenodd" stroke="none">
      <animate attributeName="fill" dur="2s" repeatCount="indefinite" values="#ffffff;#ffffff"/>
      <animate attributeName="fill-opacity" dur="2s" repeatCount="indefinite" values="0.2509804;0.7490196"/>
      <animate attributeName="d" dur="2s" repeatCount="indefinite" values="M-4.5 12.85 Q-4.5 14.9 -2.95 16.4 -1.45 17.95 0.6 17.95 2.7 17.95 4.2 16.4 5.7 14.9 5.7 12.85 5.7 10.75 4.2 9.25 2.7 7.75 0.6 7.75 -1.45 7.75 -2.95 9.25 -4.5 10.75 -4.5 12.85;M-4.5 12.85 Q-4.5 14.9 -2.95 16.4 -1.45 17.95 0.6 17.95 2.7 17.95 4.2 16.4 5.7 14.9 5.7 12.85 5.7 10.75 4.2 9.25 2.7 7.75 0.6 7.75 -1.45 7.75 -2.95 9.25 -4.5 10.75 -4.5 12.85"/>
    </path>
    <path d="M-4.5 12.85 Q-4.5 10.75 -2.95 9.25 -1.45 7.75 0.6 7.75 2.7 7.75 4.2 9.25 5.7 10.75 5.7 12.85 5.7 14.9 4.2 16.4 2.7 17.95 0.6 17.95 -1.45 17.95 -2.95 16.4 -4.5 14.9 -4.5 12.85" fill="none" stroke="#000000" stroke-linecap="round" stroke-linejoin="round" stroke-opacity="0.0" stroke-width="1.0">
      <animate attributeName="stroke" dur="2s" repeatCount="indefinite" values="#000000;#000001"/>
      <animate attributeName="stroke-width" dur="2s" repeatCount="indefinite" values="0.0;0.0"/>
      <animate attributeName="fill-opacity" dur="2s" repeatCount="indefinite" values="0.0;0.0"/>
      <animate attributeName="d" dur="2s" repeatCount="indefinite" values="M-4.5 12.85 Q-4.5 10.75 -2.95 9.25 -1.45 7.75 0.6 7.75 2.7 7.75 4.2 9.25 5.7 10.75 5.7 12.85 5.7 14.9 4.2 16.4 2.7 17.95 0.6 17.95 -1.45 17.95 -2.95 16.4 -4.5 14.9 -4.5 12.85;M-4.5 12.85 Q-4.5 10.75 -2.95 9.25 -1.45 7.75 0.6 7.75 2.7 7.75 4.2 9.25 5.7 10.75 5.7 12.85 5.7 14.9 4.2 16.4 2.7 17.95 0.6 17.95 -1.45 17.95 -2.95 16.4 -4.5 14.9 -4.5 12.85"/>
    </path>
  </g>
</svg>
