<?xml version="1.0" encoding="UTF-8" standalone="no"?>
<svg xmlns:xlink="http://www.w3.org/1999/xlink" height="12.7px" width="11.2px" xmlns="http://www.w3.org/2000/svg">
  <g transform="matrix(1.0, 0.0, 0.0, 1.0, 7.3, 7.85)">
    <path d="M-2.15 0.0 L-2.1 0.0 -1.9 0.15 -1.75 0.25 -1.7 0.4 -1.8 0.45 -1.8 0.45 -1.6 0.75 -1.5 0.85 -1.5 0.85 -1.75 0.95 -1.9 1.1 -1.9 1.15 -1.6 1.15 -1.3 1.15 -1.2 1.15 -1.25 1.45 -1.35 1.6 -1.35 1.6 -1.45 1.95 -1.45 2.0 -1.45 2.1 -1.35 2.05 -1.2 1.95 -0.95 1.8 -0.95 1.8 -0.75 1.95 -0.75 1.95 -0.65 1.85 -0.65 1.85 -0.45 2.05 -0.45 2.05 -0.35 2.15 -0.15 2.35 0.05 2.55 0.15 2.4 0.35 2.1 0.35 2.0 0.75 1.95 0.75 1.95 1.15 1.95 1.4 2.0 1.5 2.0 1.75 2.1 1.85 2.1 1.85 2.0 1.85 1.95 1.75 1.65 1.85 1.65 1.85 1.5 1.9 1.2 1.9 1.2 1.85 1.0 1.6 0.55 1.35 0.1 1.45 0.05 1.55 -0.1 1.55 -0.2 1.55 -0.35 1.6 -0.45 Q1.65 -0.6 1.7 -0.7 L1.75 -0.8 1.8 -1.05 1.7 -1.1 1.45 -1.05 1.25 -0.95 1.1 -1.45 1.1 -1.45 1.1 -1.45 1.05 -1.8 0.85 -2.05 0.75 -2.05 0.65 -2.0 0.65 -1.95 0.6 -1.9 0.45 -1.95 0.35 -2.05 0.2 -2.1 0.05 -2.05 0.05 -1.9 0.0 -1.75 -0.1 -1.6 -0.2 -1.6 Q-0.5 -1.7 -0.75 -1.75 L-1.05 -1.9 -1.35 -2.05 -1.4 -2.05 -1.45 -2.05 -1.45 -1.95 -1.4 -1.7 -1.3 -1.35 -1.3 -1.25 -1.35 -1.05 -1.25 -0.8 -1.25 -0.8 -1.2 -0.6 Q-1.2 -0.5 -1.4 -0.5 L-1.55 -0.4 -1.55 -0.4 -1.5 -0.25 -2.1 -0.1 -2.15 0.0" fill="url(#gradient0)" fill-rule="evenodd" stroke="none">
      <animate attributeName="d" dur="2s" repeatCount="indefinite" values="M-2.15 0.0 L-2.1 0.0 -1.9 0.15 -1.75 0.25 -1.7 0.4 -1.8 0.45 -1.8 0.45 -1.6 0.75 -1.5 0.85 -1.5 0.85 -1.75 0.95 -1.9 1.1 -1.9 1.15 -1.6 1.15 -1.3 1.15 -1.2 1.15 -1.25 1.45 -1.35 1.6 -1.35 1.6 -1.45 1.95 -1.45 2.0 -1.45 2.1 -1.35 2.05 -1.2 1.95 -0.95 1.8 -0.95 1.8 -0.75 1.95 -0.75 1.95 -0.65 1.85 -0.65 1.85 -0.45 2.05 -0.45 2.05 -0.35 2.15 -0.15 2.35 0.05 2.55 0.15 2.4 0.35 2.1 0.35 2.0 0.75 1.95 0.75 1.95 1.15 1.95 1.4 2.0 1.5 2.0 1.75 2.1 1.85 2.1 1.85 2.0 1.85 1.95 1.75 1.65 1.85 1.65 1.85 1.5 1.9 1.2 1.9 1.2 1.85 1.0 1.6 0.55 1.35 0.1 1.45 0.05 1.55 -0.1 1.55 -0.2 1.55 -0.35 1.6 -0.45 Q1.65 -0.6 1.7 -0.7 L1.75 -0.8 1.8 -1.05 1.7 -1.1 1.45 -1.05 1.25 -0.95 1.1 -1.45 1.1 -1.45 1.1 -1.45 1.05 -1.8 0.85 -2.05 0.75 -2.05 0.65 -2.0 0.65 -1.95 0.6 -1.9 0.45 -1.95 0.35 -2.05 0.2 -2.1 0.05 -2.05 0.05 -1.9 0.0 -1.75 -0.1 -1.6 -0.2 -1.6 Q-0.5 -1.7 -0.75 -1.75 L-1.05 -1.9 -1.35 -2.05 -1.4 -2.05 -1.45 -2.05 -1.45 -1.95 -1.4 -1.7 -1.3 -1.35 -1.3 -1.25 -1.35 -1.05 -1.25 -0.8 -1.25 -0.8 -1.2 -0.6 Q-1.2 -0.5 -1.4 -0.5 L-1.55 -0.4 -1.55 -0.4 -1.5 -0.25 -2.1 -0.1 -2.15 0.0;M-7.3 -2.9 L-7.3 -2.9 -6.8 -2.5 -6.7 -2.5 -6.2 -2.2 -6.1 -2.1 -6.1 -1.9 -6.05 -1.55 -5.9 -1.45 -5.7 -1.3 -5.8 -0.1 -5.8 0.2 -5.8 0.3 -5.9 1.15 -5.55 1.25 -5.4 1.25 -5.15 1.2 -4.7 1.2 -4.5 1.2 -3.85 2.05 -3.85 2.1 -3.65 2.3 -3.2 3.05 -2.8 3.85 -2.55 4.55 -2.45 4.65 -2.35 4.85 -2.3 4.85 -2.1 4.7 -2.0 4.6 -1.7 4.0 -1.65 4.05 -1.5 4.3 -0.7 3.95 -0.45 3.6 -0.15 2.95 0.2 2.25 0.3 1.95 0.6 1.15 0.6 1.15 1.6 1.2 1.8 1.2 2.2 1.15 2.45 1.15 2.65 1.1 2.65 0.95 2.8 0.95 3.4 0.85 3.45 0.8 3.35 0.5 2.9 0.05 2.9 0.05 2.45 -0.25 3.15 -1.25 3.9 -2.15 3.8 -2.65 3.45 -2.85 3.2 -3.0 3.15 -3.45 3.15 -3.8 Q3.1 -4.3 2.7 -4.35 L2.0 -4.2 1.5 -4.4 1.4 -4.5 1.15 -5.15 1.05 -5.45 0.6 -7.15 0.5 -7.75 0.45 -7.85 -0.1 -7.3 -0.65 -6.7 -0.75 -6.6 -1.25 -6.4 -1.45 -6.15 -1.45 -6.05 -1.9 -5.55 -2.0 -5.55 -2.4 -5.9 -2.7 -6.2 -2.8 -6.2 -2.9 -6.0 -3.0 -5.85 -3.1 -6.0 Q-4.15 -7.15 -4.35 -7.0 L-4.4 -6.3 -4.4 -5.5 -4.45 -5.55 -4.55 -5.65 -4.75 -5.65 -5.05 -5.1 -5.15 -4.6 -5.15 -4.5 -5.6 -4.95 -6.2 -5.15 -6.3 -5.05 -5.9 -4.55 Q-5.65 -4.15 -5.4 -3.75 L-5.2 -3.45 -5.35 -3.4 -5.5 -3.4 -7.15 -3.05 -7.3 -2.9"/>
    </path>
    <path d="M-2.15 0.0 L-2.1 -0.1 -1.5 -0.25 -1.55 -0.4 -1.55 -0.4 -1.4 -0.5 Q-1.2 -0.5 -1.2 -0.6 L-1.25 -0.8 -1.25 -0.8 -1.35 -1.05 -1.3 -1.25 -1.3 -1.35 -1.4 -1.7 -1.45 -1.95 -1.45 -2.05 -1.4 -2.05 -1.35 -2.05 -1.05 -1.9 -0.75 -1.75 Q-0.5 -1.7 -0.2 -1.6 L-0.1 -1.6 0.0 -1.75 0.05 -1.9 0.05 -2.05 0.2 -2.1 0.35 -2.05 0.45 -1.95 0.6 -1.9 0.65 -1.95 0.65 -2.0 0.75 -2.05 0.85 -2.05 1.05 -1.8 1.1 -1.45 1.1 -1.45 1.1 -1.45 1.25 -0.95 1.45 -1.05 1.7 -1.1 1.8 -1.05 1.75 -0.8 1.7 -0.7 Q1.65 -0.6 1.6 -0.45 L1.55 -0.35 1.55 -0.2 1.55 -0.1 1.45 0.05 1.35 0.1 1.6 0.55 1.85 1.0 1.9 1.2 1.9 1.2 1.85 1.5 1.85 1.65 1.75 1.65 1.85 1.95 1.85 2.0 1.85 2.1 1.75 2.1 1.5 2.0 1.4 2.0 1.15 1.95 0.75 1.95 0.75 1.95 0.35 2.0 0.35 2.1 0.15 2.4 0.05 2.55 -0.15 2.35 -0.35 2.15 -0.45 2.05 -0.45 2.05 -0.65 1.85 -0.65 1.85 -0.75 1.95 -0.75 1.95 -0.95 1.8 -0.95 1.8 -1.2 1.95 -1.35 2.05 -1.45 2.1 -1.45 2.0 -1.45 1.95 -1.35 1.6 -1.35 1.6 -1.25 1.45 -1.2 1.15 -1.3 1.15 -1.6 1.15 -1.9 1.15 -1.9 1.1 -1.75 0.95 -1.5 0.85 -1.5 0.85 -1.6 0.75 -1.8 0.45 -1.8 0.45 -1.7 0.4 -1.75 0.25 -1.9 0.15 -2.1 0.0 -2.15 0.0" fill="none" stroke="#000000" stroke-linecap="round" stroke-linejoin="round" stroke-opacity="0.0" stroke-width="1.0">
      <animate attributeName="stroke" dur="2s" repeatCount="indefinite" values="#000000;#000001"/>
      <animate attributeName="stroke-width" dur="2s" repeatCount="indefinite" values="0.0;0.0"/>
      <animate attributeName="fill-opacity" dur="2s" repeatCount="indefinite" values="0.0;0.0"/>
      <animate attributeName="d" dur="2s" repeatCount="indefinite" values="M-2.15 0.0 L-2.1 -0.1 -1.5 -0.25 -1.55 -0.4 -1.55 -0.4 -1.4 -0.5 Q-1.2 -0.5 -1.2 -0.6 L-1.25 -0.8 -1.25 -0.8 -1.35 -1.05 -1.3 -1.25 -1.3 -1.35 -1.4 -1.7 -1.45 -1.95 -1.45 -2.05 -1.4 -2.05 -1.35 -2.05 -1.05 -1.9 -0.75 -1.75 Q-0.5 -1.7 -0.2 -1.6 L-0.1 -1.6 0.0 -1.75 0.05 -1.9 0.05 -2.05 0.2 -2.1 0.35 -2.05 0.45 -1.95 0.6 -1.9 0.65 -1.95 0.65 -2.0 0.75 -2.05 0.85 -2.05 1.05 -1.8 1.1 -1.45 1.1 -1.45 1.1 -1.45 1.25 -0.95 1.45 -1.05 1.7 -1.1 1.8 -1.05 1.75 -0.8 1.7 -0.7 Q1.65 -0.6 1.6 -0.45 L1.55 -0.35 1.55 -0.2 1.55 -0.1 1.45 0.05 1.35 0.1 1.6 0.55 1.85 1.0 1.9 1.2 1.9 1.2 1.85 1.5 1.85 1.65 1.75 1.65 1.85 1.95 1.85 2.0 1.85 2.1 1.75 2.1 1.5 2.0 1.4 2.0 1.15 1.95 0.75 1.95 0.75 1.95 0.35 2.0 0.35 2.1 0.15 2.4 0.05 2.55 -0.15 2.35 -0.35 2.15 -0.45 2.05 -0.45 2.05 -0.65 1.85 -0.65 1.85 -0.75 1.95 -0.75 1.95 -0.95 1.8 -0.95 1.8 -1.2 1.95 -1.35 2.05 -1.45 2.1 -1.45 2.0 -1.45 1.95 -1.35 1.6 -1.35 1.6 -1.25 1.45 -1.2 1.15 -1.3 1.15 -1.6 1.15 -1.9 1.15 -1.9 1.1 -1.75 0.95 -1.5 0.85 -1.5 0.85 -1.6 0.75 -1.8 0.45 -1.8 0.45 -1.7 0.4 -1.75 0.25 -1.9 0.15 -2.1 0.0 -2.15 0.0;M-7.3 -2.9 L-7.15 -3.05 -5.5 -3.4 -5.35 -3.4 -5.2 -3.45 -5.4 -3.75 Q-5.65 -4.15 -5.9 -4.55 L-6.3 -5.05 -6.2 -5.15 -5.6 -4.95 -5.15 -4.5 -5.15 -4.6 -5.05 -5.1 -4.75 -5.65 -4.55 -5.65 -4.45 -5.55 -4.4 -5.5 -4.4 -6.3 -4.35 -7.0 Q-4.15 -7.15 -3.1 -6.0 L-3.0 -5.85 -2.9 -6.0 -2.8 -6.2 -2.7 -6.2 -2.4 -5.9 -2.0 -5.55 -1.9 -5.55 -1.45 -6.05 -1.45 -6.15 -1.25 -6.4 -0.75 -6.6 -0.65 -6.7 -0.1 -7.3 0.45 -7.85 0.5 -7.75 0.6 -7.15 1.05 -5.45 1.15 -5.15 1.4 -4.5 1.5 -4.4 2.0 -4.2 2.7 -4.35 Q3.1 -4.3 3.15 -3.8 L3.15 -3.45 3.2 -3.0 3.45 -2.85 3.8 -2.65 3.9 -2.15 3.15 -1.25 2.45 -0.25 2.9 0.05 2.9 0.05 3.35 0.5 3.45 0.8 3.4 0.85 2.8 0.95 2.65 0.95 2.65 1.1 2.45 1.15 2.2 1.15 1.8 1.2 1.6 1.2 0.6 1.15 0.6 1.15 0.3 1.95 0.2 2.25 -0.15 2.95 -0.45 3.6 -0.7 3.95 -1.5 4.3 -1.65 4.05 -1.7 4.0 -2.0 4.6 -2.1 4.7 -2.3 4.85 -2.35 4.85 -2.45 4.65 -2.55 4.55 -2.8 3.85 -3.2 3.05 -3.65 2.3 -3.85 2.1 -3.85 2.05 -4.5 1.2 -4.7 1.2 -5.15 1.2 -5.4 1.25 -5.55 1.25 -5.9 1.15 -5.8 0.3 -5.8 0.2 -5.8 -0.1 -5.7 -1.3 -5.9 -1.45 -6.05 -1.55 -6.1 -1.9 -6.1 -2.1 -6.2 -2.2 -6.7 -2.5 -6.8 -2.5 -7.3 -2.9 -7.3 -2.9"/>
    </path>
  </g>
  <defs>
    <radialGradient cx="0" cy="0" gradientTransform="matrix(0.0033, 0.0, 0.0, 0.0033, -0.1, 0.2)" gradientUnits="userSpaceOnUse" id="gradient0" r="819.2" spreadMethod="pad">
      <animateTransform additive="replace" attributeName="gradientTransform" dur="2s" from="1" repeatCount="indefinite" to="1" type="scale"/>
      <animateTransform additive="sum" attributeName="gradientTransform" dur="2s" from="-0.1 0.2" repeatCount="indefinite" to="-1.7 -1.5" type="translate"/>
      <animateTransform additive="sum" attributeName="gradientTransform" dur="2s" from="0.0" repeatCount="indefinite" to="0.0" type="rotate"/>
      <animateTransform additive="sum" attributeName="gradientTransform" dur="2s" from="0.0033 0.0033" repeatCount="indefinite" to="0.0085 0.0085" type="scale"/>
      <animateTransform additive="sum" attributeName="gradientTransform" dur="2s" from="0.0" repeatCount="indefinite" to="0.0" type="skewX"/>
      <stop offset="0.0" stop-color="#ffff00">
        <animate attributeName="offset" dur="2s" repeatCount="indefinite" values="0.0;0.0"/>
        <animate attributeName="stop-color" dur="2s" repeatCount="indefinite" values="#ffff00;#ff9901"/>
        <animate attributeName="stop-opacity" dur="2s" repeatCount="indefinite" values="1.0;0.2"/>
      </stop>
      <stop offset="1.0" stop-color="#ff6600">
        <animate attributeName="offset" dur="2s" repeatCount="indefinite" values="1.0;1.0"/>
        <animate attributeName="stop-color" dur="2s" repeatCount="indefinite" values="#ff6600;#ff0001"/>
        <animate attributeName="stop-opacity" dur="2s" repeatCount="indefinite" values="1.0;0.101960786"/>
      </stop>
    </radialGradient>
  </defs>
</svg>
