<?xml version="1.0" encoding="UTF-8" standalone="no"?>
<svg xmlns:xlink="http://www.w3.org/1999/xlink" height="16.45px" width="14.5px" xmlns="http://www.w3.org/2000/svg">
  <g transform="matrix(1.0, 0.0, 0.0, 1.0, 4.25, 4.9)">
    <path d="M-2.35 0.6 Q-2.05 1.35 -1.8 2.05 -1.6 2.55 -1.45 3.05 -1.3 3.65 -0.45 3.8 L0.65 3.85 Q0.85 3.9 1.05 3.9 1.45 4.45 2.35 4.15 3.15 4.0 3.45 3.15 L3.7 2.1 Q3.9 1.65 4.1 1.2 4.0 0.45 3.9 -0.3 3.65 -0.95 3.45 -1.55 2.95 -2.45 2.1 -2.45 1.5 -2.5 0.9 -2.5 0.5 -2.55 0.15 -2.55 -0.35 -2.45 -0.85 -2.35 -1.4 -1.95 -1.55 -1.25 -1.8 -0.7 -2.05 -0.2 L-2.35 0.6" fill="url(#gradient0)" fill-rule="evenodd" stroke="none">
      <animate attributeName="d" dur="2s" repeatCount="indefinite" values="M-2.35 0.6 Q-2.05 1.35 -1.8 2.05 -1.6 2.55 -1.45 3.05 -1.3 3.65 -0.45 3.8 L0.65 3.85 Q0.85 3.9 1.05 3.9 1.45 4.45 2.35 4.15 3.15 4.0 3.45 3.15 L3.7 2.1 Q3.9 1.65 4.1 1.2 4.0 0.45 3.9 -0.3 3.65 -0.95 3.45 -1.55 2.95 -2.45 2.1 -2.45 1.5 -2.5 0.9 -2.5 0.5 -2.55 0.15 -2.55 -0.35 -2.45 -0.85 -2.35 -1.4 -1.95 -1.55 -1.25 -1.8 -0.7 -2.05 -0.2 L-2.35 0.6;M-4.05 2.7 Q-4.55 4.2 -3.85 5.8 -3.3 7.15 -3.1 8.8 -3.05 9.85 -2.25 10.65 L0.75 10.85 Q1.45 11.35 2.05 11.5 3.2 11.9 4.85 9.65 5.4 8.75 5.95 7.85 L6.15 7.15 Q7.55 7.4 9.2 5.2 10.7 3.05 10.05 0.7 9.5 -1.05 8.6 -1.9 7.55 -2.9 6.95 -3.0 5.0 -3.5 4.75 -3.75 3.85 -4.6 2.9 -4.85 0.65 -5.15 -1.1 -2.7 -2.5 -0.85 -2.55 0.05 -2.6 1.05 -3.25 1.6 L-4.05 2.7"/>
    </path>
    <path d="M-2.35 0.6 L-2.05 -0.2 Q-1.8 -0.7 -1.55 -1.25 -1.4 -1.95 -0.85 -2.35 -0.35 -2.45 0.15 -2.55 0.5 -2.55 0.9 -2.5 1.5 -2.5 2.1 -2.45 2.95 -2.45 3.45 -1.55 3.65 -0.95 3.9 -0.3 4.0 0.45 4.1 1.2 3.9 1.65 3.7 2.1 L3.45 3.15 Q3.15 4.0 2.35 4.15 1.45 4.45 1.05 3.9 0.85 3.9 0.65 3.85 L-0.45 3.8 Q-1.3 3.65 -1.45 3.05 -1.6 2.55 -1.8 2.05 -2.05 1.35 -2.35 0.6" fill="none" stroke="#000000" stroke-linecap="round" stroke-linejoin="round" stroke-opacity="0.0" stroke-width="1.0">
      <animate attributeName="stroke" dur="2s" repeatCount="indefinite" values="#000000;#000001"/>
      <animate attributeName="stroke-width" dur="2s" repeatCount="indefinite" values="0.0;0.0"/>
      <animate attributeName="fill-opacity" dur="2s" repeatCount="indefinite" values="0.0;0.0"/>
      <animate attributeName="d" dur="2s" repeatCount="indefinite" values="M-2.35 0.6 L-2.05 -0.2 Q-1.8 -0.7 -1.55 -1.25 -1.4 -1.95 -0.85 -2.35 -0.35 -2.45 0.15 -2.55 0.5 -2.55 0.9 -2.5 1.5 -2.5 2.1 -2.45 2.95 -2.45 3.45 -1.55 3.65 -0.95 3.9 -0.3 4.0 0.45 4.1 1.2 3.9 1.65 3.7 2.1 L3.45 3.15 Q3.15 4.0 2.35 4.15 1.45 4.45 1.05 3.9 0.85 3.9 0.65 3.85 L-0.45 3.8 Q-1.3 3.65 -1.45 3.05 -1.6 2.55 -1.8 2.05 -2.05 1.35 -2.35 0.6;M-4.05 2.7 L-3.25 1.6 Q-2.6 1.05 -2.55 0.05 -2.5 -0.85 -1.1 -2.7 0.65 -5.15 2.9 -4.85 3.85 -4.6 4.75 -3.75 5.0 -3.5 6.95 -3.0 7.55 -2.9 8.6 -1.9 9.5 -1.05 10.05 0.7 10.7 3.05 9.2 5.2 7.55 7.4 6.15 7.15 L5.95 7.85 Q5.4 8.75 4.85 9.65 3.2 11.9 2.05 11.5 1.45 11.35 0.75 10.85 L-2.25 10.65 Q-3.05 9.85 -3.1 8.8 -3.3 7.15 -3.85 5.8 -4.55 4.2 -4.05 2.7"/>
    </path>
  </g>
  <defs>
    <radialGradient cx="0" cy="0" gradientTransform="matrix(0.0054, 0.0, 0.0, 0.0054, 0.85, 0.85)" gradientUnits="userSpaceOnUse" id="gradient0" r="819.2" spreadMethod="pad">
      <animateTransform additive="replace" attributeName="gradientTransform" dur="2s" from="1" repeatCount="indefinite" to="1" type="scale"/>
      <animateTransform additive="sum" attributeName="gradientTransform" dur="2s" from="0.85 0.85" repeatCount="indefinite" to="0.85 0.85" type="translate"/>
      <animateTransform additive="sum" attributeName="gradientTransform" dur="2s" from="0.0" repeatCount="indefinite" to="0.0" type="rotate"/>
      <animateTransform additive="sum" attributeName="gradientTransform" dur="2s" from="0.0054 0.0054" repeatCount="indefinite" to="0.0054 0.0054" type="scale"/>
      <animateTransform additive="sum" attributeName="gradientTransform" dur="2s" from="0.0" repeatCount="indefinite" to="0.0" type="skewX"/>
      <stop offset="0.0" stop-color="#999999" stop-opacity="0.4">
        <animate attributeName="offset" dur="2s" repeatCount="indefinite" values="0.0;0.0"/>
        <animate attributeName="stop-color" dur="2s" repeatCount="indefinite" values="#999999;#000001"/>
        <animate attributeName="stop-opacity" dur="2s" repeatCount="indefinite" values="0.4;0.003921569"/>
      </stop>
      <stop offset="1.0" stop-color="#666666" stop-opacity="0.4392157">
        <animate attributeName="offset" dur="2s" repeatCount="indefinite" values="1.0;1.0"/>
        <animate attributeName="stop-color" dur="2s" repeatCount="indefinite" values="#666666;#000001"/>
        <animate attributeName="stop-opacity" dur="2s" repeatCount="indefinite" values="0.4392157;0.003921569"/>
      </stop>
    </radialGradient>
  </defs>
</svg>
