<?xml version="1.0" encoding="UTF-8" standalone="no"?>
<svg xmlns:xlink="http://www.w3.org/1999/xlink" height="7.2px" width="6.45px" xmlns="http://www.w3.org/2000/svg">
  <g transform="matrix(1.0, 0.0, 0.0, 1.0, 2.35, 2.95)">
    <path d="M-2.3 0.5 L-1.7 1.75 -1.55 2.45 Q-1.4 3.0 -0.5 3.0 L0.2 2.9 0.4 2.8 Q0.65 3.4 1.55 3.4 2.4 3.4 2.8 2.4 L3.1 1.1 3.0 0.15 2.7 -0.95 2.55 -2.0 Q2.15 -2.95 1.15 -2.95 L0.15 -2.7 Q-0.1 -2.45 -0.35 -2.5 L-0.8 -2.5 Q-1.25 -2.3 -1.5 -1.55 -1.7 -0.9 -2.05 -0.4 L-2.3 0.5" fill="#999999" fill-opacity="0.0" fill-rule="evenodd" stroke="none">
      <animate attributeName="fill" dur="2s" repeatCount="indefinite" values="#999999;#99999a"/>
      <animate attributeName="fill-opacity" dur="2s" repeatCount="indefinite" values="0.0;0.49803922"/>
      <animate attributeName="d" dur="2s" repeatCount="indefinite" values="M-2.3 0.5 L-1.7 1.75 -1.55 2.45 Q-1.4 3.0 -0.5 3.0 L0.2 2.9 0.4 2.8 Q0.65 3.4 1.55 3.4 2.4 3.4 2.8 2.4 L3.1 1.1 3.0 0.15 2.7 -0.95 2.55 -2.0 Q2.15 -2.95 1.15 -2.95 L0.15 -2.7 Q-0.1 -2.45 -0.35 -2.5 L-0.8 -2.5 Q-1.25 -2.3 -1.5 -1.55 -1.7 -0.9 -2.05 -0.4 L-2.3 0.5;M-2.35 0.6 L-1.8 2.05 -1.45 3.05 Q-1.3 3.65 -0.45 3.8 L0.65 3.85 1.05 3.9 Q1.45 4.45 2.35 4.15 3.15 4.0 3.45 3.15 L3.7 2.1 4.1 1.2 3.9 -0.3 3.45 -1.55 Q2.95 -2.45 2.1 -2.45 L0.9 -2.5 Q0.5 -2.55 0.15 -2.55 L-0.85 -2.35 Q-1.4 -1.95 -1.55 -1.25 -1.8 -0.7 -2.05 -0.2 L-2.35 0.6"/>
    </path>
    <path d="M-2.3 0.5 L-2.05 -0.4 Q-1.7 -0.9 -1.5 -1.55 -1.25 -2.3 -0.8 -2.5 L-0.35 -2.5 Q-0.1 -2.45 0.15 -2.7 L1.15 -2.95 Q2.15 -2.95 2.55 -2.0 L2.7 -0.95 3.0 0.15 3.1 1.1 2.8 2.4 Q2.4 3.4 1.55 3.4 0.65 3.4 0.4 2.8 L0.2 2.9 -0.5 3.0 Q-1.4 3.0 -1.55 2.45 L-1.7 1.75 -2.3 0.5" fill="none" stroke="#000000" stroke-linecap="round" stroke-linejoin="round" stroke-opacity="0.0" stroke-width="1.0">
      <animate attributeName="stroke" dur="2s" repeatCount="indefinite" values="#000000;#000001"/>
      <animate attributeName="stroke-width" dur="2s" repeatCount="indefinite" values="0.0;0.0"/>
      <animate attributeName="fill-opacity" dur="2s" repeatCount="indefinite" values="0.0;0.0"/>
      <animate attributeName="d" dur="2s" repeatCount="indefinite" values="M-2.3 0.5 L-2.05 -0.4 Q-1.7 -0.9 -1.5 -1.55 -1.25 -2.3 -0.8 -2.5 L-0.35 -2.5 Q-0.1 -2.45 0.15 -2.7 L1.15 -2.95 Q2.15 -2.95 2.55 -2.0 L2.7 -0.95 3.0 0.15 3.1 1.1 2.8 2.4 Q2.4 3.4 1.55 3.4 0.65 3.4 0.4 2.8 L0.2 2.9 -0.5 3.0 Q-1.4 3.0 -1.55 2.45 L-1.7 1.75 -2.3 0.5;M-2.35 0.6 L-2.05 -0.2 Q-1.8 -0.7 -1.55 -1.25 -1.4 -1.95 -0.85 -2.35 L0.15 -2.55 Q0.5 -2.55 0.9 -2.5 L2.1 -2.45 Q2.95 -2.45 3.45 -1.55 L3.9 -0.3 4.1 1.2 3.7 2.1 3.45 3.15 Q3.15 4.0 2.35 4.15 1.45 4.45 1.05 3.9 L0.65 3.85 -0.45 3.8 Q-1.3 3.65 -1.45 3.05 L-1.8 2.05 -2.35 0.6"/>
    </path>
  </g>
</svg>
