<?xml version="1.0" encoding="UTF-8" standalone="no"?>
<svg xmlns:xlink="http://www.w3.org/1999/xlink" height="17.5px" width="14.5px" xmlns="http://www.w3.org/2000/svg">
  <g transform="matrix(1.0, 0.0, 0.0, 1.0, 2.8, 2.6)">
    <path d="M-2.35 0.6 Q-2.05 1.35 -1.8 2.05 -1.6 2.55 -1.45 3.05 -1.3 3.65 -0.45 3.8 L0.65 3.85 Q0.85 3.9 1.05 3.9 1.45 4.45 2.35 4.15 3.15 4.0 3.45 3.15 L3.7 2.1 Q3.9 1.65 4.1 1.2 4.0 0.45 3.9 -0.3 3.65 -0.95 3.45 -1.55 2.95 -2.45 2.1 -2.45 1.5 -2.5 0.9 -2.5 0.5 -2.55 0.15 -2.55 -0.35 -2.45 -0.85 -2.35 -1.4 -1.95 -1.55 -1.25 -1.8 -0.7 -2.05 -0.2 L-2.35 0.6" fill="#999999" fill-opacity="0.49803922" fill-rule="evenodd" stroke="none">
      <animate attributeName="fill" dur="2s" repeatCount="indefinite" values="#999999;#010102"/>
      <animate attributeName="fill-opacity" dur="2s" repeatCount="indefinite" values="0.49803922;0.0"/>
      <animate attributeName="d" dur="2s" repeatCount="indefinite" values="M-2.35 0.6 Q-2.05 1.35 -1.8 2.05 -1.6 2.55 -1.45 3.05 -1.3 3.65 -0.45 3.8 L0.65 3.85 Q0.85 3.9 1.05 3.9 1.45 4.45 2.35 4.15 3.15 4.0 3.45 3.15 L3.7 2.1 Q3.9 1.65 4.1 1.2 4.0 0.45 3.9 -0.3 3.65 -0.95 3.45 -1.55 2.95 -2.45 2.1 -2.45 1.5 -2.5 0.9 -2.5 0.5 -2.55 0.15 -2.55 -0.35 -2.45 -0.85 -2.35 -1.4 -1.95 -1.55 -1.25 -1.8 -0.7 -2.05 -0.2 L-2.35 0.6;M-2.6 6.05 Q-3.1 7.55 -2.4 9.15 -1.85 10.5 -1.65 12.15 -1.6 13.2 -0.8 14.0 L2.2 14.2 Q2.9 14.7 3.5 14.85 4.65 15.25 6.3 13.0 6.85 12.1 7.4 11.2 L7.6 10.5 Q9.0 10.75 10.65 8.55 12.15 6.4 11.5 4.05 10.95 2.3 10.05 1.45 9.0 0.45 8.4 0.35 6.45 -0.15 6.2 -0.4 5.3 -1.25 4.35 -1.5 2.1 -1.8 0.35 0.65 -1.05 2.5 -1.1 3.4 -1.15 4.4 -1.8 4.95 L-2.6 6.05"/>
    </path>
    <path d="M-2.35 0.6 L-2.05 -0.2 Q-1.8 -0.7 -1.55 -1.25 -1.4 -1.95 -0.85 -2.35 -0.35 -2.45 0.15 -2.55 0.5 -2.55 0.9 -2.5 1.5 -2.5 2.1 -2.45 2.95 -2.45 3.45 -1.55 3.65 -0.95 3.9 -0.3 4.0 0.45 4.1 1.2 3.9 1.65 3.7 2.1 L3.45 3.15 Q3.15 4.0 2.35 4.15 1.45 4.45 1.05 3.9 0.85 3.9 0.65 3.85 L-0.45 3.8 Q-1.3 3.65 -1.45 3.05 -1.6 2.55 -1.8 2.05 -2.05 1.35 -2.35 0.6" fill="none" stroke="#000000" stroke-linecap="round" stroke-linejoin="round" stroke-opacity="0.0" stroke-width="1.0">
      <animate attributeName="stroke" dur="2s" repeatCount="indefinite" values="#000000;#000001"/>
      <animate attributeName="stroke-width" dur="2s" repeatCount="indefinite" values="0.0;0.0"/>
      <animate attributeName="fill-opacity" dur="2s" repeatCount="indefinite" values="0.0;0.0"/>
      <animate attributeName="d" dur="2s" repeatCount="indefinite" values="M-2.35 0.6 L-2.05 -0.2 Q-1.8 -0.7 -1.55 -1.25 -1.4 -1.95 -0.85 -2.35 -0.35 -2.45 0.15 -2.55 0.5 -2.55 0.9 -2.5 1.5 -2.5 2.1 -2.45 2.95 -2.45 3.45 -1.55 3.65 -0.95 3.9 -0.3 4.0 0.45 4.1 1.2 3.9 1.65 3.7 2.1 L3.45 3.15 Q3.15 4.0 2.35 4.15 1.45 4.45 1.05 3.9 0.85 3.9 0.65 3.85 L-0.45 3.8 Q-1.3 3.65 -1.45 3.05 -1.6 2.55 -1.8 2.05 -2.05 1.35 -2.35 0.6;M-2.6 6.05 L-1.8 4.95 Q-1.15 4.4 -1.1 3.4 -1.05 2.5 0.35 0.65 2.1 -1.8 4.35 -1.5 5.3 -1.25 6.2 -0.4 6.45 -0.15 8.4 0.35 9.0 0.45 10.05 1.45 10.95 2.3 11.5 4.05 12.15 6.4 10.65 8.55 9.0 10.75 7.6 10.5 L7.4 11.2 Q6.85 12.1 6.3 13.0 4.65 15.25 3.5 14.85 2.9 14.7 2.2 14.2 L-0.8 14.0 Q-1.6 13.2 -1.65 12.15 -1.85 10.5 -2.4 9.15 -3.1 7.55 -2.6 6.05"/>
    </path>
  </g>
</svg>
